<?xml version="1.0" encoding="UTF-8"?>
<svg id="Layer_1" data-name="Layer 1" xmlns="http://www.w3.org/2000/svg" xmlns:xlink="http://www.w3.org/1999/xlink" viewBox="0 0 100 100">
  <defs>
    <style>
      .cls-1 {
        clip-path: url(#clippath);
      }

      .cls-2, .cls-3 {
        fill: #fbfbfb;
      }

      .cls-4 {
        clip-path: url(#clippath-1);
      }

      .cls-3 {
        fill-rule: evenodd;
      }
    </style>
    <clipPath id="clippath">
      <rect class="cls-2" x="44.67" y="71.95" width=".02" height=".02"/>
    </clipPath>
    <clipPath id="clippath-1">
      <rect class="cls-2" x="46.52" y="71.36" width=".02" height=".02"/>
    </clipPath>
  </defs>
  <g>
    <path class="cls-2" d="M56.69,37.13c-.2-.09,.13-.49,.29-.58,.16-.09,.74-.11,.74-.11,0,0-.17,.27-.2,.54-.03,.27-.62,.24-.83,.15"/>
    <path class="cls-2" d="M58.39,38.1c-.2-.09,.13-.49,.29-.58,.16-.09,.74-.11,.74-.11,0,0-.17,.27-.2,.54-.03,.27-.62,.24-.83,.15"/>
    <path class="cls-2" d="M58.49,36.85c-.2-.09,.13-.49,.29-.58,.16-.09,.74-.11,.74-.11,0,0-.17,.27-.2,.54-.03,.27-.62,.24-.83,.15"/>
    <path class="cls-2" d="M56.72,38.32c-.2-.08,.13-.49,.29-.58,.16-.09,.74-.11,.74-.11,0,0-.17,.27-.2,.54-.03,.27-.62,.24-.83,.15"/>
    <path class="cls-2" d="M58.43,39.3c-.18-.07,.11-.43,.25-.5,.14-.08,.64-.09,.64-.09,0,0-.15,.23-.18,.47-.03,.23-.54,.21-.71,.13"/>
    <path class="cls-2" d="M56.76,39.61c-.18-.07,.11-.43,.25-.5,.14-.07,.64-.09,.64-.09,0,0-.15,.23-.18,.47-.03,.23-.54,.21-.71,.13"/>
    <path class="cls-2" d="M59.89,39.17c-.18-.07,.11-.43,.25-.5,.14-.07,.64-.09,.64-.09,0,0-.15,.23-.18,.47-.03,.23-.54,.21-.71,.13"/>
    <path class="cls-2" d="M58.5,40.44c-.18-.07,.11-.43,.25-.5,.14-.07,.64-.09,.64-.09,0,0-.15,.23-.18,.47s-.54,.21-.71,.13"/>
    <path class="cls-2" d="M59.95,40.34c-.18-.07,.11-.43,.25-.5,.14-.07,.64-.09,.64-.09,0,0-.15,.23-.18,.47-.03,.23-.54,.21-.71,.13"/>
    <path class="cls-2" d="M60.01,38.06c-.18-.07,.11-.43,.25-.5,.14-.08,.64-.09,.64-.09,0,0-.15,.23-.18,.47-.03,.23-.54,.21-.71,.13"/>
  </g>
  <g>
    <path class="cls-3" d="M21.34,45.43c-.49-.5-.6-1.16-.46-1.7,.24-.91,.19-1.59-.19-2.02-.17-.19-.29-.32-.5-.41,.22,1.19,.32,2.21-.49,3.21,.08-.35-.35-1.07-.29-1.97,.05-.77,.31-1.55,.06-1.9,.3,.22,1.05,.34,1.37,.4,.72,.1,.9,.44,1.15,1.02,.08,.19,.39,.39,.49,.6,.13-.33,.29-.59,.35-.77,.1-.29,.05-.56-.03-.87,.39,.04,.57,.79,.73,.96,.14,.16,.24,.29,.52,.29,.12-.32,.09-.57,.13-.88,.05-.4,.21-.72,.06-1.18,.22,.03,.46,.33,.58,.61,.16,.36,.09,.66,.35,.87,.26-.17,.39-.47,.46-.64,.21-.58,.35-1.06,.38-1.75,.3,.25,.48,.27,.78,.51,.37,.3,.58,.88,.84,1.06,.82,.56,1.7,.99,2.56,1.38,1.09,.5,2.12,.83,3.85,1.22,.71,.1,1.22,.13,1.88-.04,.3-.08,.97-.1,1.12-.11,.15,0,.52,.1,.9,.19,.63,.16,.82,.83,.81,1.38-.61,.41-1.16,.43-2.11,.65-.75,.18-1.43,.26-2.01,.86-.13,.13-.28,.37-.54,.37,.05-.12,.03-.26-.07-.4-.06-.08-.21-.19-.38-.23-.24,.23-.29,.71-.61,.6,.03-.22-.28-.32-.52-.29-.25,.03-.36,.27-.63,.24,.12-.28-.23-.56-.48-.68-.08,.06-.36,.61-.7,.65,.15-.35-.17-.85-.5-.94-.09,.29-.25,.83-.69,.94,.15-.34,.04-1.17-.51-1.25-.02,.48-.13,.78-.49,1.02,.16-1.31-.95-1.73-1.99-2.04-.42-.13-.42-.14-.83-.29-.22-.09-.46-.17-.76-.15-.07,.32,.22,.96,.51,1.27-.56-.07-.92-.3-1.17-.59-.21-.25-.23-.47-.41-.91-.39,.95,.13,1.23,.51,1.82-1.5,0-1.56-1.75-1.57-1.85-.18,.21-.26,.38-.34,.67-.03,.35,.06,.88,.37,1.21-.23-.03-.69-.32-.79-.62-.12-.36-.09-.18-.12-.56-.03-.29-.02-1.03-.14-1.33-.12,.2-.29,.52-.27,.87,.12,.78-.35,1.02-.21,1.47"/>
    <path class="cls-3" d="M14.07,35.57c-.05,.61,.28,.94,.59,1.53,.36,.69,.38,1.71,.03,2.58-.13,.31-.31,.65-.57,1.02-.44-1.79-1.02-3.56-.04-5.12"/>
    <path class="cls-3" d="M18.3,39.5c-.01,.41,.61,.85,.66,1.53,.04,.44-.04,.81-.15,1.22-.13,.5,.16,.81-.1,1.44-.13,.33-.27,.66-.24,1.15-.18-.23-.87-1.46-.62-2.45,.2-.8,.21-1.28,.23-2.17,.01-.28,.1-.5,.21-.71"/>
    <path class="cls-3" d="M17.11,43.54c-.66-.45-.97-1.64-.75-2.25,.43-1.19,.31-1.29,.27-2.5,0-.22,.03-.71,.19-1.04-.02,1.06,.72,1.4,.72,2.4,0,.43,.02,1.13-.23,1.7-.34,.78-.27,1.46-.19,1.69"/>
    <path class="cls-3" d="M15.41,36.91c.09,.55,.4,1.09,.58,1.41,.24,.44,.19,1.42-.12,2.4-.14,.42-.57,.96-.56,1.39-.09-.25,.04,.16-.19-.76-.25-1.01,.26-1.51,.34-2.29,.05-.54-.08-1.59-.04-2.15"/>
  </g>
  <g>
    <path class="cls-2" d="M5.29,47.69s.64-.4,.96-1.97c.32-1.58,2.16-2.51,2.73-2.6-.52,.59-.98,1.31-1.46,2.19-.67,1.23-1.75,2.15-2.24,2.38"/>
    <path class="cls-2" d="M13.93,43.2c-.41-1.03-.64-1.58-1.69-2.17-.73-.41-1.23-.49-2.08-.62-1.34-.2-2.03,.09-2.52,.35-.49,.26-.9,.6-1.34,1.54-.35,.75-.31,1.42-.28,2.09,.18-.84,.46-1.51,1.01-2.06,.5-.5,1.08-.85,1.33-.92,.83-.24,1.33-.02,1.33-.02-.59,.13-.97,.24-1.4,.53-.74,.5-1.43,1.45-1.62,2.19,0,0,.68-1.15,1.82-1.66,.89-.46,1.72-.5,2.45-.37-.23,.08-.51,.21-.84,.45-.53,.38-.92,1.1-1.33,1.87-.6,1.14-1.04,1.79-1.53,2.23,.39-.13,1.67-.85,2.2-1.63s.99-1.82,1.16-2.03c.17-.21,.73-.52,1.08-.41,.35,.1,.62,.37,.63,.37,.31,.36,.7,1.04,.57,2.22-.22,1.89-.97,3.45-2.63,6.25-1.59,2.68-2.48,3.69-3.12,5.15-.89,2.02-.74,4.67,1.4,5.24,1.01,.33,2.49-.3,2.49-.3,0,0,.42-.32,.42,.62l.22-3.42s-.38,1.49-1.62,1.57c-1.24,.09-1.8-.24-1.93-1.13-.13-.89,.43-2.43,.86-3.16,.43-.73,3.32-5.49,3.43-5.75,.11-.26,1.2-2.14,1.46-3.45,.26-1.31,.49-2.55,.09-3.58"/>
  </g>
  <g>
    <g>
      <rect class="cls-2" x="44.67" y="71.95" width=".02" height=".02"/>
      <g class="cls-1">
        <path class="cls-3" d="M44.69,71.97s0,0,0-.01h0s-.01,.01-.02,.02c0,0,0,0,.01-.01"/>
      </g>
    </g>
    <g>
      <rect class="cls-2" x="46.52" y="71.36" width=".02" height=".02"/>
      <g class="cls-4">
        <path class="cls-3" d="M46.53,71.37s0,0,0-.01c0,0,0,0,0,0,0,0-.01,.01-.02,.02,0,0,0,0,.01,0"/>
      </g>
    </g>
    <path class="cls-3" d="M38.16,90.51c.34,.15,.8,.37,1.14,.52,.2,.09,.41,.16,.62,.25,2.31,.93,4.71,1.52,7.15,1.9,2.38,.37,4.78,.43,7.18,.24,2.22-.17,4.06-.75,6.16-1.46,.96-.34,1.66-.65,2.49-1.12,.4-.21,.79-.49,1.22-.71,.12,.37,.15,.64-.25,.88-.42,.24-.69,.39-1.13,.59-1.07,.5-2.08,.95-3.28,1.3-1.08,.32-1.84,.53-2.73,.69-1.09,.19-1.94,.29-3.19,.35-1.9,.09-3.75,.04-5.61-.17-1.74-.22-3.38-.56-5.13-1.01-.72-.19-1.77-.55-2.46-.82-.66-.28-1.01-.46-1.68-.75-.21-.11-.28-.14-.43-.3-.1-.1-.13-.29-.09-.38"/>
    <path class="cls-3" d="M66.25,92.45c-.28,.18-.62,.41-.9,.59-1.33,.83-2.79,1.34-4.24,1.88-.74,.27-1.51,.49-2.27,.7-1.57,.42-2.33,.56-4.48,.77-.77,.08-2.06-.1-3.29-.4,2.74,.03,5.05-.24,6.5-.57,2-.46,3.98-1.06,5.82-2.02,.61-.32,1.25-.72,1.78-1.14,.32-.32,.89-.05,1.08,.2"/>
    <path class="cls-3" d="M37.71,93.53c-.88-.61-1.51-1.59-1.57-1.66,.59,.18,1.3,.68,2,1.17,.79,.46,1.1,.64,2.05,.98,1.13,.4,1.97,.63,3.13,.94,1.6,.43,1.52,.37,3.13,.73,.74,.14,1.75,.23,3.18,.29-1.92,.35-3.37,.15-4.74-.09-.96-.18-2.55-.41-3.73-.81-2.03-.68-2.58-.95-3.46-1.56"/>
    <path class="cls-3" d="M70.6,89.97c-2.96,4.04-6.08,5.22-9.06,6-1.88,.49-4.28,.73-5.1,.76,2.22-.43,4.27-1.01,5.84-1.67,1.6-.67,2.55-1.1,3.91-2.07,.11-.1,.3-.23,.51-.14,.69,.29,3.03-1.9,3.89-2.88"/>
    <path class="cls-3" d="M46.89,97.33c-.44-.06-1.8-.54-2-.8,1.92,.42,3.68,.42,5.47,.47,.24,.02,1.1-.03,1.33-.04,.66-.03,1.63,.37,2.2,.4-.58,.16-2.82,.29-3.53,.24,0,.04-1.92-.08-3.47-.27"/>
    <path class="cls-3" d="M63.73,89.55c-1.32,.72-2.38,1.23-3.74,1.81-.18,.09-.5,.17-.71,.13-.26-.08-.34-.29-.27-.53,.35-.11,.58-.2,.89-.31,1.28-.45,1.99-.8,3.25-1.31,.12-.05,.64-.37,.92-.52,.01,.51-.21,.68-.34,.75"/>
    <path class="cls-3" d="M63.82,88.29c-.18,.12-.82,.43-1.01,.52-.95,.45-1.07,.47-2.01,.9-.34,.16-1.65,.63-1.5-.02,1.64-.69,3.23-1.3,4.82-1.98,.02,.21,0,.43-.3,.57"/>
    <path class="cls-3" d="M67.67,84.16c1.39-.3,3.48-.37,4.86-.25,0,.48,.01,.71-.02,1.11-1.47-.21-3.45-.42-4.86-.62-.14-.02-.09-.22,.02-.24"/>
    <path class="cls-3" d="M70.26,86.61c.99,.1,1.64,0,1.31,.84-.05,.14-.23,.57-.27,.71-.22,.67-.68,.64-1.29,.59,.07-.72,.18-1.44,.25-2.15"/>
    <path class="cls-3" d="M63.11,87c0,.31-.48,.52-1.19,.84-.47,.21-1.04,.5-1.46,.56-.28,.04-.58,.12-.7-.18,1.31-.5,2.16-.86,3.22-1.36,.14-.08,.14,.02,.14,.14"/>
    <path class="cls-3" d="M65.63,89.04c1.62,.23,3.1,.43,4.5,.63-.03,.18-.06,.31-.34,.26-.76-.1-1.79-.23-2.55-.34-.4-.06-.9-.12-1.31-.18-.26-.04-.3-.18-.3-.37"/>
    <path class="cls-3" d="M66.92,85.1c.29-.04,.64-.07,.95-.03,1.1,.15,3.28,.34,4.37,.52q-.08,.22-.19,.41c-1.51-.21-3.59-.49-5.1-.71-.16-.03-.16-.17-.03-.2"/>
    <path class="cls-3" d="M69.04,87.37c-.26-.26-.5-.53,.08-.9-.9-.12-1.61-.24-2.35-.35-.58-.09-.86-.02-.93,.55-.06,.48-.09,.96-.15,1.5,.27,.04,.5,.07,.66,.1,0-.53-.04-.99,0-1.44,.02-.23-.02-.59,.39-.61,.64,.21,.7,.71,.65,1.28-.02,.17-.01,.36,.03,.53,.03,.11,.19,.34,.28,.36,.4,.08,.69,.14,1.26,.22-.7-.54-.28-.91,.09-1.23"/>
    <path class="cls-3" d="M48.89,91.48c-1.1-.2-2.19-.4-3.37-.62,0-.45,1.03-.24,1.79-.09,.87,.17,1.58,.32,1.58,.71"/>
    <path class="cls-3" d="M43.37,91.6c-.98-.19-1.96-.57-2.82-.87,0-.68,2.86,.2,2.82,.87"/>
    <path class="cls-3" d="M46.1,91.8c.94,.16,1.78,.31,2.63,.46,0,.4-.97,.29-1.51,.19-.53-.1-1.27-.28-1.12-.66"/>
    <path class="cls-3" d="M42.96,89.78c-.37,.41-.86,.3-1.35,.22-.08-.01-.67-.17-.61-.49,.02-.12,.25-.15,.36-.13,.27,.05,.52,.17,.78,.24,.25,.07,.51,.1,.82,.16"/>
    <path class="cls-3" d="M68.67,91.04c-.53-.08-.89-.12-1.43-.2-.15-.03-.15-.14-.15-.36,.54,.06,1.21,.2,1.75,.26,0,.2-.08,.3-.17,.3"/>
    <path class="cls-2" d="M73.56,82.48c-.51,0-1.85,0-2.65,0-.36,0-.27-.29-.27-.52,.02-.92,0-5.74,0-6.15h-.26c-.02,.33-.03,.85-.03,1.21,0,.3-1.9,1.65-2.71,1.16-.37-.22-.35-.46-.38-.77-.06-.58-.31-1.08-.85-1.3-.76-.31-2.47,.58-3,1.26-.52,.67-.52,5.8-.23,7.19-.08,.02-.15,.03-.2,.01-.27-.07-.49-.48-.76-.9-.02-.04-1.4-1.87-1.46-1.97-.43-.68-1.06-1.61-1.52-2.28-.48-.71,.11-.76,.87-1.03,.64-.23,.96-.57,1.59-.58,.81,0,.55-.28,.33-.26-.6-.01-.75-.36-.86-.6-.34-.76-1.01-2.13-1.31-2.8-.02-.05-.27-.47-.46-.89-.48-1.08-1.04-2.39-1.56-3.45-.36-.73-.71-1.41-.68-2.23,.02-.35,.02-.96,0-1.2-1.02-.29-1.16-.08-1.88,.5-.38,.3-1.17,.26-1.41,.07,.16,.46,.7,.66,.86,.72,.71,.24,1.01-.04,1.78-.16,.21-.03,.46-.08,.46,.08,0,.11,.01,.27,0,.45-.08,1.2-.45,2.27-.85,3.4-.4,1.13-.97,2.19-1.48,3.28-.13,.28-.23,.61-.44,.34-.33-.44-2.85-4.39-2.97-4.97-.08-.36,.37-.37,.7-.46,.9-.24,.95-1.09,1.72-1.34,.2-.1,.08-.3-.32-.25-.82,.1-1.19-.61-1.51-1.12-.5-.78-.99-1.62-1.37-2.41-.11-.22-.08-.53-.08-.82,0-.28,.01-.26,.03-.7-.36,.33-1.01,.24-1.38,.57-.52,.47-.47,1.92-1.71,.85,.17,.22,.31,.91,1.18,.89,.45,0,.8-.11,1.16-.64,.24-.36,.52-.39,.39-.11-.03,.06-.66,1.72-.92,2.3-.32,.73-.62,1.51-1.02,2.05-.13,.18-.18,.31-.54,.4-.07,.02-.43,.02-.43,.12,0,.12,.05,.06,.33,.11,.82,.14,.38,.71-.23,1.12-.02,.01-1.02,.85-1.02,.85-.53,.42-.83,.52-1.25,0-.65-.8-1.17-1.76-1.74-2.62-.51-.77-.67-1.62-.65-2.57,.01-.55-.01-.89-.02-1.59-.8,.09-1.23,.58-1.66,.99-.5,.47-.69,1.1-1.41,1.16,.52,.43,1.28,.2,2.08-.44,.24-.19,.62-.26,.64,.3,0,.24,.03,.46,.01,.71-.02,.35-.04,.44-.1,.63-.25,.75-.57,1.38-.92,2.2-.27,.63-.54,1.41-.96,1.74-.18,.14-.4,.28-.69,.3-.57,.04-.42,.29-.33,.29,.6,.17,1.09,.3,1.58,.44,.55,.16,.94,.89,.69,1.31-.05,.09-.11,.17-.17,.25-.17,.22-1.03,1.18-2.09,2.14-.94,.85-2.05,1.71-2.72,2.15-.88,.58-3.5,1.93-4.41,2.46-.68,.4-1.51,1.12-2.17,1.12-.17,0-.32-.22-.31-.63,.03-1.14,.07-3.42,.06-6.04-.6,0-.52,.61-1.16,.69-.46,.06-.55,.21-.56,.37-.05,.68-.06,1.08-.06,1.35,.13,.02,.3-.08,.4-.15,.66-.45,.57-.24,1.13-.35,.02,.78,0,3.44-.05,4.24,0,.18-.06,.52-.4,.52h-2.13c-.16-.01-.15,.28,.15,.37,.22,.06,.5,.03,.74,.05,.32,.02,.6,.27,.69,.37,1.27,1.36,3.78,3.63,4.32,4.07,.35,.28,.75,.58,1.14,1.1,.39,.51,1.55,2.4,1.82,2.6,0,0,0,0,0,0,0,0,0,0,0,0,0,0,.01,0,.02,.01,0,0,0,0,0,0,.67,.24,1.23,.69,1.87,1,1,.49,1.99,.98,3.01,1.37,.86,.33,1.64,.56,2.53,.8,1.14,.31,2.39,.7,3.55,.87,1.42,.2,2.16,.29,3.24,.3,1.52,.02,3.04-.02,4.55-.15,1.25-.11,2.49-.37,3.72-.62,.81-.17,1.62-.39,2.4-.68,.72-.27,1.38-.57,2.07-.9,.66-.31,1.82-1.08,2.45-1.44-.15-.25-.59-.34-.93-.1-.7,.4-.82,.56-1.96,1.07-1.04,.46-2.02,.94-3.11,1.21-1.61,.4-3.02,.67-4.95,.94-2,.16-3.98,.17-5.89,0-2.12-.24-3.4-.57-5.42-1.15-.86-.2-1.72-.52-2.54-.85-.93-.38-1.98-.93-2.53-1.36-.79-.62-1.02-1.47-.98-3.32,.01-.5,.21-.71,.48-.63,.17,.05,.33,.1,.5,.15,.57,.18,1.32,.46,1.89,.66,1.76,.65,3.37,1.07,5.11,1.38,.52,.09,1.2,.2,1.97,.25,0-.2,.07-.33-.03-.4-.12-.08-.55-.08-.53-.4,0-.18,.47-.18,.63-.18,.43,.02,.71,.06,1.17,.11,.15,.05,.07,.79,.05,1.01,.69,.03,1.32,.07,2.06,.06,.25,0,.71-.03,.73,.21,.02,.23-.03,.18-1.05,.23-.11,0-.1,.15,0,.15,.13,0,.53,.09,.64,.18,.3,.3,.24,.68,.23,1.15-.02,.74,.42,.69,.98,.71,1.19,.05,2.11-.05,2.94-.11,.39-.08,.46-.31,.45-.56-1,0-3.04,.24-3.11,.11-.16-.05-.12-.14-.15-.31-.02-.17,.13-.16,.62-.18,.65-.02,1.05-.09,1.67-.1,.48-.01,.61-.16,.61-.4-.92,0-1.85,0-2.98,.01-.13,0,.01-.54,.28-.54,2.18,0,2.28-.25,3.36-.31,.26-.01,.8,.15,.8,.64,0,1.22,.43,1.13,.79,1.07,.07-.01,.67,.04,.57-.79-.02-.47-.26-1.06-.03-1.38,.28-.39,.91-.52,1.48-.78,.47-.21,.28-.34,.18-.59-.13-.32,.05-.54,.33-.63,.73-.25,1.42-.52,2.13-.8,.3-.12,.76-.31,1.05-.44,.68-.3,.69-.65,1.11,.18,.03,.07,.04,.14,.1,.33,.33-.21,.83-.37,.85-.57,.09-.86,.64-1.42,1.13-2.02,.47-.58,1.03-1.33,1.87-1.39,.28-.02,5.41,.02,5.83,0,.17-.27,.43-.65,.04-.65Zm-23.64-5.41c-.23-.03-.37,.16-.3-.76,.09-1.15,.34-5.18,.35-5.57,.06-.67,.18-.61,.19,.28,0,.17,.03,4.27,.06,5.28,0,.17,.14,.8-.31,.78Zm-2.01-1.25c-.15-.14-.11-.36,.03-.71,.07-.17,1.37-4.39,1.47-4.59,.11-.33,.25-.58,.21,.15,0,.14-.33,4.75-.37,5.24-.02,.2,0,.9-.23,.79-.17-.07-.93-.72-1.12-.88Zm.83,1.65c-.75,.24-1.21,.33-1.79,.48-.37,.13-.32-.05-.2-.26,.23-.48,.35-.73,.64-1.32,.06-.12,.15-.26,.24-.19,.4,.29,.73,.58,1.14,.94,.21,.19,.05,.32-.02,.34Zm-.04-8.83c.41-.99,.8-1.94,1.18-2.89,.17-.51,.27-.2,.28-.01,.03,.5,.02,2.31,.02,2.47,0,.18-.16,.31-.32,.39-.29,.13-.64,.3-1.04,.38-.14,.03-.25-.07-.13-.34Zm-2.05,3.58c.28-.11,.05-.2-.43-.23-.2-.01-.06-.07,.06-.17,.21-.17,1.41-1.19,1.6-1.34,.2-.17,.79-.62,1.07-.55,.26,.07,.15,.28,.13,.42-.03,.14-1.21,4.06-1.53,4.82-.08,.2-.21,.17-.26,.1-.59-.7-1.14-1.31-1.6-2.15-.2-.36,.26-.62,.97-.89Zm-2,1.1c.41-.3,.58,.03,.8,.3,.55,.67,1.1,1.33,1.63,2.01,.09,.12,.14,.37,.08,.49-.34,.71-.6,1.22-.98,1.91-.16,.29-.41,.2-.59-.12-.42-.75-1.48-3.04-1.56-3.39-.04-.16-.05-.25,.03-.4,.09-.18,.35-.63,.59-.81Zm1.35,6.18c.22,.34,.34,.46-.1,.48-.31,.01-.9,0-1.2,.03-.34,.04-.41-.19-.46-.58-.01-.09-.5-3.45-.58-4.15-.06-.3,.16-.28,.27,0,.38,1,1.78,3.76,2.08,4.22Zm-3.66,1.08c-.18,.06-.35,.14-.42,.09-.11-.09,.03-.25,.15-.42,.12-.19,.04-.06,.17-.26,.09-.14,.19-.05,.19,.13,0,.17,.07,.41-.09,.46Zm-.81,.02c-.14,.16-.28,.2-.37,.2-.77,.04-1.32,.06-1.67,0-.35-.06-.45-.2-.18-.55,.08-.1,.34-.47,.48-.71,.14-.23,.28-.52,.5-.79,.06-.08,.07-.15,.14-.17,.14-.03,.32,.06,.44,.1,.38,.12,.65,.18,1.25,.41,.3,.12-.02,.52-.19,.82-.15,.28-.28,.53-.41,.67Zm.83-4.81c.03,.41,.01,1.52,.01,1.83q0,.43,0,.86c0,.09,.01,.28-.1,.31-.14,.04-.39-.06-.49-.08-.36-.1-.59-.14-.93-.32-.33-.17-.05-.51,.02-.66,.3-.73,.51-1.24,.85-1.96,.08-.17,.24-.72,.45-.59,.19,.14,.18,.45,.19,.61Zm-.86-3.75c-.56,.06-.54-.29-.46-.5,.29-.82,.66-1.62,1-2.42,.07-.2,.16-.23,.16-.03,0,.52,.03,2.2,.03,2.31-.02,.68-.26,.59-.73,.64Zm-8.44,14.98c-.66-.57-2.13-1.91-3.07-2.78-.17-.16-1.01-.92-.93-1.24,.11-.27,.43-.17,1.09-.17,1.13,0,.35-.01,1.13,0,.9,0,1.18,.47,1.4,.73,.03,.04,.06,.08,.08,.1,.3,.37,.54,.73,.77,1.48,.2,.64,1.16,3.28-.47,1.89Zm2.88,2.36c-.18,.09-.42-.26-.59-.46-.32-.38-.42-.79-.64-1.47-.36-1.11-.65-2.43,.04-2,.42,.26,.41,.23,.73,.47,.33,.29,.34,.88,.36,1,.14,.74,.16,1.1,.19,1.83,.01,.37,.08,.56-.08,.64Zm-.18-3.94c-.43-.15-.88-.54-1.68-1.22-.5-.42-1.39-1.39-.98-1.4,1.32-.03,1.91,.02,2.72,.02,.68,0,.63,.2,.69,.61,.07,.46,.02,1.13,.05,1.59,.03,.47-.35,.59-.79,.4Zm2.2,.79c-.21-.07-.44-.17-.71-.29-.26-.11-.29-.47-.31-.67-.07-.95-.07-1.38-.17-2.34-.03-.33-.19-.44-.45-.44-1.12,0-1.94,.02-3.06,0-.41,0-1.74,0-2.15,0-.23,0,.59-.56,.67-.6,1.1-.63,3.99-2.21,4.84-2.76,.89-.58,2.03-1.58,2.91-2.38,.81-.75,1.34-1.35,1.75-1.76,.33-.43,.47-.03,.4,.17-.17,.45-.15,.44-.27,.71-.23,.5-.49,.98-.72,1.47-.46,1-1.93,3.19-1.98,3.31-.06,.14-.68-.01-.3,.41,.1,.12,.8,.17,.98,.22,.6,.17,1.61,.28,1.65,.68,.03,.29-.24,.95-.23,.95,0,0-1.26,2.48-1.72,3.24-.18,.3-.25,.37-1.12,.08Zm1.45,.41c-.24-.08,.02-.34,.07-.46,.12-.31,.3-.64,.44-.91l1.19-2.51c.15-.23,.22-.49,.53-.42,.47,.11,.46,.36,.33,.79-.15,.47-.43,1.04-.65,1.55l-.67,1.3c-.09,.16-.17,.3-.26,.42-.21,.59-.76,.32-.97,.25Zm1.19,.11c-.07-.22,.18-.58,.32-.89h.01s.52-1.05,.52-1.05c.08-.12,.41-.81,.5-1.02,.04-.09,.18-.44,.21-.51,.27-.66,.33,.11,.28,.3-.02,.09-.7,2.45-.87,2.91-.08,.2-.21,.63-.39,.57-.18-.06-.52-.15-.57-.32Zm.41,1.68c-.4-.22-.44-.57-.18-.94,.46,.16,.92,.31,1.4,.48-.25,.59-.68,.76-1.23,.46Zm1.56-1.49c-.01,.24,0,.6-.22,.59-.1,0-.38-.1-.64-.2-.13-.09-.19-.15-.13-.31,.27-.69,.43-1.33,.65-1.99,.04-.14,.14-.49,.17-.56,.13-.26,.15,.16,.15,.45,0,.51,.04,1.49,.02,2.01Zm.18-15.82c-.02-.59-.05-1.34-.07-1.93,0-.09,0-.18,0-.28,0-.29,.07-.11,.11-.05,.21,.28,.68,1.01,.9,1.37,.26,.43,.48,.73,.7,1.19,.14,.28,.02,.44-.3,.46-.09,0-.18,.02-.27,.03-1.03,.08-1.05,.25-1.08-.78Zm.22,5.05c0-.07-.04-.93-.04-1.04,0-.22,.27-.11,.32,.05,.07,.19,.42,2.5,.5,3.22,.01,.11,.06,.28-.16,.26-.08,0-.16,.01-.31,.02-.27,0-.22-.49-.24-.91-.02-.47-.05-1.09-.07-1.61Zm.17,3.58c-.02-.41,.03-.6,.2-.7,.07-.04,.16-.06,.28-.08,.07,0,.22,.07,.26,.18,.06,.16,.1,.48,.1,.66,0,.29-.02,.36-.36,.45-.21,.05-.44,.26-.48-.51Zm1.16,8.3c-.15-.01-.27-.03-.37-.06-.16-.04-.33-.07-.4-.21-.05-.09-.04-.64-.05-.77-.05-1.33-.12-2.59-.19-3.9,0-.12-.06-.58,.04-.77,.07-.14,.16-.13,.22-.13,.33,0,.33,.7,.36,.85,.12,.57,.52,4.56,.53,4.73,.01,.21,.02,.27-.16,.25Zm1.11,.16c-.23-.01-.49-.02-.58-.12-.02-.03-.05-.06-.06-.1-.03-.07-.04-.17-.05-.23-.08-.38-.56-4.37-.7-5.49-.02-.16,.11-.2,.16-.03,.2,.63,1.3,5.21,1.4,5.86,.02,.13-.09,.12-.18,.12Zm.96,.08c-.11,0-.19-.01-.38-.07-.12-.04-.15-.2-.18-.32-.36-1.48-1.22-4.78-1.37-5.52-.09-.44-.25-.75,.22-.95,.61-.26,1.42-.66,2-.98,.13-.08,.34-.22,.35-.31,.01-.29-.32-.1-.39-.21-.2-.35-.4-.71-.61-1.07-.06-.11-.05-.15,.07-.15,.95-.04,1.81-.03,2.67,0,.54,.02,.5,.46,.41,.81-.25,1.01-2.07,7.14-2.24,7.65-.12,.35-.36,1.13-.54,1.13Zm1.62-.2c-.07,.19-.12,.32-.27,.33-.25,.01-.75,0-.81-.15-.07-.19,0-.36,.08-.58,.18-.5,2.3-7.73,2.47-8.18,.05-.15,.11-.78,.49-.77,.51,0,.29,.45,.28,.6-.03,.42-.26,1.29-.36,1.7-.36,1.48-.75,2.95-1.12,4.42-.15,.58-.31,1.14-.47,1.71-.09,.31-.22,.69-.3,.92Zm2.3,.12c0,.28-.09,.43-.29,.43-.07,0-1.18,0-1.37-.19-.19-.2-.16-.42-.1-.8,.03-.23,.1-.48,.18-.75,.32-1.1,1.21-4.71,1.43-5.59,.05-.2,.12-.16,.09,.25,.02,.42,0,.92,.01,1.35,.01,1.32,0,2.61,.04,3.93,.02,.46,.01,.92,0,1.38Zm6.83-.95c-.01,.66-.13,.75-.55,.85-.32,.08-.72,.25-.92,.13-.14-.08-.11-.33-.07-.57,.18-1.03,1.17-6.41,1.31-7.22,.03-.19,.13-.55,.15-.29,0,.68,.07,4.25,.06,5.37,0,.58,.03,1.13,.02,1.73Zm-4.01-8.98c.11-.03,.39-.02,.47,.01,.69,.22,1.27,.38,1.93,.67,.25,.11,.66,.2,.54,.75-.29,1.34-.73,2.65-1.15,3.96-.04,.12-.12,.42-.2,.71-.05,.17-.16,.44-.32-.1-.27-.95-1.65-5.48-1.73-5.69-.18-.5-.12-.76,.44-1.05,.19-.1,.12-.06,.31-.17,0,0-.2,.48-.34,.67-.03,.04-.06,.06-.08,.07-.31,.07-.14,.25,.13,.18Zm3.42,1.27c.11-.42,.31-.29,.22,.11-.11,.66-1.34,7.41-1.59,8.4-.09,.36-.64,.5-1.14,.55q-.19,.02-.12-.23c.74-2.51,1.93-6.49,2.62-8.83Zm.43-8.69c.02,.35,.07,4.64,.07,5.4,0,.33-.4,.64-.66,.87-.23,.19-.7,.05-.61-.26,0,0,1.01-5.8,1.11-6.33,.04-.22,.1-.09,.09,.32Zm-2.54,5.24c.29-.2,.4-.1,.4-.44,0-.21-.33-.05-.18-.3l.36-.79c.41-.8,.89-1.77,1.17-2.38,.11-.25,.12-.14,.08,.12-.02,.11-.74,4.52-.82,4.68-.07,.16-.12,.49-.94,.68-.3,.07-.69,.21-.98,.28-.12,.03-.05-.06-.05-.06,0,0,.75-1.65,.95-1.79Zm-3.11-4.86c.13,.18,1.93,2.86,2.75,4.32,.13,.23-.12,.39-.3,.45-.32,.12-.37,.1-.69,.22-.44,.16-.64-.19-.77-.66-.15-.56-1.22-4.05-1.2-4.26,.03-.24,.11-.21,.21-.07Zm-.8-3.45c-.03-.62-.08-1.18-.08-1.79,0-.66-.02-.84,.12-.6,.55,.88,1.04,1.65,1.5,2.43,.24,.4-.14,.38-.28,.4-.28,.03-.6,.08-.82,.08-.39,0-.41-.04-.43-.52Zm.32,8.85c-.01-1.02-.08-2.75-.14-3.99-.07-1.45,.03-1.26,.25-.48,.24,.73,.83,2.94,1.03,3.59,.08,.26,.27,.76,.07,.84-.28,.11-.66,.19-.91,.29-.18,.07-.29,0-.3-.25Zm1.99,12.07c-.35,.03-.81-.02-1.16-.02-.29,0-.35-.32-.37-.59-.03-.42-.16-3.45-.18-4.51-.02-.89-.03-1.68-.09-2.57-.01-.18-.11-1.24,.04-1.24,.15-.04,.37,.99,.4,1.09,.26,1.01,.5,2.02,.75,3.03,.34,1.37,.68,2.75,.99,4.13,.12,.52,.14,.65-.38,.69Zm.68-.98c-.23-.99-2.2-8.27-2.19-8.84,0-.18,.2-.44,.58-.65,.3-.21,.39,.34,.45,.51,.46,1.42,.89,2.84,1.33,4.26,.22,.71,.4,1.44,.61,2.15,.07,.23,.05,.39-.02,.65-.05,.19-.41,1.55-.52,1.79-.08,.18-.23,.23-.24,.14Zm1.92,2.02c-.96,.14-1.43-.02-1.73-.63,1.03-.21,2.06-.42,3.12-.64,0,.63-.55,1.14-1.39,1.27Zm1.47,2c-.23,.03-.4,0-.46-.39-.06-.31,.04-.52,.4-.52,.25-.06,.31,.23,.35,.47,.02,.23-.14,.43-.29,.44Zm.33-21.66c0-.12,.04-.68,.21-.27,.08,.13,1.21,2.77,1.6,3.69,.15,.34,.11,.58-.18,.92-.4,.49-.76,.86-1.13,1.28-.18,.22-.26,.12-.26-.14-.04-.58-.19-4.47-.24-5.49Zm.28,6.8c-.01-.19,.14-.44,.33-.7,.45-.6,.95-1.16,1.5-1.78,.07-.08,.12-.02,.14,.02,.35,.77,.68,1.45,.97,2.15,.21,.51-.08,.94-.61,.93-.48,0-.95-.02-1.42-.07-.52-.05-.89-.24-.91-.56Zm.65,9.92c-.12,.04-.27,0-.29-.47-.04-.91-.12-3.77-.15-4.67,0-.06,.32,1.27,.42,1.66,.16,.57,.69,2.58,.73,3,.03,.28-.29,.35-.72,.48Zm2.18-.89c-.09,.22-.57,.36-.72,.41-.36,.12-.4-.19-.64-1.04-.41-1.47-.77-2.95-1.14-4.43-.08-.34-.13-.69-.19-1.03-.08-.32,.14-.37,.26-.1,.21,.37,2.18,5.21,2.33,5.6,.09,.23,.16,.44,.09,.59Zm1.3-.34c-.62,.24-.76,.25-.88-.03-.72-1.63-1.82-4.16-2.48-5.78-.31-.76,.18-.83,.36-.54,.52,.9,3.51,5.19,3.68,5.42,.4,.51-.23,.77-.67,.94Zm8.7-3.59c0,.18-.04,.52-.24,.52h-1.96c-.55,0-1.17,.21-1.45,.34-.59,.28-1.07,.6-1.97,1.05-.32,.16-.43,.21-.76,.35-.14,.06-.32,.16-.5,.24,.65-1.34,1.65-2.67,2.58-2.79,.41-.05,.87,.4,1.26,.38,.69-.03,1.26-.55,1.67-.93,.66-.6,1.3-.53,1.35-.39,.04,.11,0,.58,.02,1.23Zm.02-2.21c-.64-.24-1.55,.31-2.31,.95-.75,.64-.94,.36-2.07-.06-1.13-.43-2.46,1.32-2.46,1.32,0,0-.34-2.85,.17-4.12,.56-.67,2.43-1.81,2.64-.46,.17,1.11,1.16,1.33,1.59,1.38,1.15,.14,2.43-1.05,2.43-1.05,0,0,.04,1.49,0,2.05Z"/>
  </g>
  <path class="cls-3" d="M10.57,72.08c-.31,1.42-.28,2.03-.22,2.66,.17-.21,.33-.33,.49-.32-.15,.43-.19,.77-.17,1.12,.16-.25,.3-.39,.53-.46-.07,.43-.11,.74-.04,1.22,.2-.44,.39-.86,.61-.7,.22,.14,0,0,.21,.13,.18,.11-.19,.71-.25,.87-.06,.15,.22,.42,.57,.52-.32,1.24-.62,2.26-.36,3.36,.1,.41,.27,.8,.79,1.09-.21-.95-.2-1.67-.11-2.39,.06-.49,.3-.97,.52-1.42,.12-.24,.41-.14,.54,.16,.18,.43,.18,1.36,.19,1.82,.04,1.54,.26,2.37,1.75,3.11,.6,.3,1.06,.13,1.39-.15,.21-.18,.61-.6,.37-.98-.35-.55-.2-.64,.31-.58,.61,.08,1.06-.3,1.31-.79,.12-.23,.16-.95-.3-.89-1.23,.15-1.28-.47-1.46-.88-.18-.42-.1-1.9,.39-1.94,.26-.02,.38-.32,.29-.69-2.91,.03-5.86-1.33-7.35-3.86m4.14,8.28c-.16-.75-.22-1.35-.23-2.12,0-.61,.34-.72,.98-.72,.54,0,.66,.25,.54,.52-.49,1.05-.29,2.06,.14,2.98-.6,.61-1.29,0-1.43-.67"/>
  <path class="cls-2" d="M17.59,44.5c.04,.39,.86,2.06,1.46,.73,.6-1.33,1.76,1.29,4.07,1.29s3.24-.7,3.92-.59c.69,.11,1.08,.62,.79,1.45-.57,1.65-1.67,2.62-4.12,4.97-.83,1.05-1.48,2.15-1.54,2.27-.22,.44-.21,.77,0,.84,.18,.06,.36-.03,.55-.27,.43-.56,.53-1.32,1.29-1.76,.47-.28,2.57-1.11,2.57-1.11,0,0,1.16-.39,1.76,.26,.6,.64,.94,2.7,.86,3.6-.09,.9-.43,2.66-2.36,3.99-1.93,1.33-1.07,2.49-.6,3,.47,.52,2.97,.26,2.97,.26,0,0,.99,.04,1.53,.88,.3,.47,.3,1.09,.3,1.09,0,0-1.1,.77-1.93,.69-1.44-.15-2.06-.77-3.26-.73-1.2,.04-3.17,.04-3.17,.04,0,0-1.07-.14-.77-1.11,.47-1.52,1.09-3.14,.93-4.08-.1-.6-1.11-.54-1.48-.4-.38,.14-.7,.35-1.27,.06-.22-.12-.24-.65-.31-1.02-.15-.79-.16-1.82,.15-2.89,.16-.55,.16-.52,.25-.71,.19-.4-.32-.86-.7-.06-.53,1.11-.56,2.01-.58,2.7-.03,1.37,.87,4.18,.7,5.46-.17,1.29-.51,2.14-1.46,3.09-.94,.94-3.95,4.55-3.95,4.55,0,0-1.2,1.43-.43,3,.54,1.09,1.73,.89,2.27,.9,.46,0,.73-.19,1.44,.39,.61,.5,.74,1.27,.15,1.37-2.98,.49-4.22-.06-5.79-.99-1.57-.92-1.29-3.39-1.29-3.39,0,0-.06-1.22,1.87-2.62,.47-.75,.9-1.78,.56-2.42-.32-.61-1.01-1.87-1.01-1.87,0,0-.64-2.79-.56-3.9,.09-1.11-.04-2.83,.86-4.63,.9-1.8,2.72-4.01,3.45-5.82,.73-1.81,1.62-3.99,1.87-6.49"/>
  <g>
    <path class="cls-3" d="M19.95,36.4c0,.2-.04,.36-.13,.46-.52-.1-.78-.55-.94-.88-.67,.09-.94-.08-1.49-.51-.32-.28-.7-.86-.91-1.38-.34,.03-.9-.39-1.23-.76-.59-.61-.51-1.21-1.03-1.97-.13,1.44-1.13,2.45-.47,3.84,.24-.56,.4-1.04,.74-1.47-.01,.88,0,1.04,.09,1.76,.06,.41,.23,.91,.47,1.11-.07-.5-.03-.7,.09-1.03,.16-.44,.3-.6,.6-.78,.11,.28,.09,.43,.06,.72-.03,.28-.05,.53,.04,.89,.15,.61,.33,.93,.48,1.34-.04-.44,.03-.86,.14-1.18,.1-.31,.23-.45,.47-.62,.4,.68,.33,1.09,.38,1.74,.06,.62,.44,.84,.55,1.26,.26-.57-.22-1.5,.58-2.04-.13,.81-.12,1.37,.14,2.01,.15,.36,.54,.66,.68,1.18,.09-.75-.3-1.55,.1-2.34,.37,.38,.24,.7,.35,1.09,.15,.56,.45,.86,.29,1.4,.77-.33,.41-1.71,.42-2.51,0-.51,.08-.48,.17-.84-.18-.2-.43-.33-.65-.5"/>
    <path class="cls-3" d="M22.26,33.89c0-.16-.03-.46,.17-.65,.21,.06,.48,.28,.53,.62,.07,.4,.07,.99-.09,1.16,.82-.43,.84-1.24,.66-1.88-.16-.51-.6-.77-.51-1.21,.68-.11,.87,.77,.91,1.2,.23-.36,.34-.94,.24-1.35-.08-.32-.55-.64-.35-1.11,.22,0,.34,.19,.48,.39,.13,.18,.25,.43,.32,.7,.16-.49,.07-.9-.09-1.28-.16-.38-.41-.44-.5-1.08,.34-.15,.35,.27,.75,.4,.03-.44,.05-.59-.35-1.16,.13-.13,.4-.03,.56,.15,.02-.42-.39-.95-.63-1.17,.16-.08,.34,0,.49,.08,.05-.37-.19-.71-.41-.88-.26-.21-.46-.17-.68-.38-.21-.2-.53-.64-.59-.95,.23-.02,.54-.06,.8-.18,.43-.2,.65-.41,.9-.79,.28-.42,.39-.94-.07-1.4-.36-.35-.83-.45-1.27-.32-.48,.15-.76,.66-1.33,.37-.08,.27-.23,.33-.27,.35-.16,.08-.55,.11-.9,.07-.33-.04-1.69,.03-2.02,.07-.71,.08-3.44,1.13-3.36,.48-.13,.64-1.01-.29-1.95,.55-.53,.44-.63,1.12-.42,1.64,.28,.67,.96,.9,1.83,.74-.02,.29-.07,.5-.32,.75-.21,.21-.49,.38-.66,.85-.16,.62-.13,1.77,.43,2.27-.08-.64-.08-.94,.1-1.35,.12-.32,.42-.56,.59-.56-.13,.48-.22,1.16-.22,1.73,0,.62,0,.97,.33,1.53,.02-.69,.25-1.56,.62-1.62,.38,.62-.07,1.16-.16,1.7-.1,.6,.24,.88,.63,1.08-.11-.29-.03-.6,.03-.85,.07-.28,.35-1.14,.84-.94-.49,.97-.48,1.56-.25,2.3,.15,.47,.62,1.05,.96,1.12-.25-.32-.41-.94-.41-1.28,0-.6,.1-1.3,.36-1.47,.13,.13,.31,.35,.25,.83-.07,.52-.12,.69,.04,1.19,.14,.45,.4,.76,.65,1.02-.18-1.06-.05-2.23,.43-2.47-.06,.82-.13,1.46,.14,1.95,.26,.5,.45,1.11,.45,1.55,.22,.16,.47,.3,.65,.5,.02-.09,.05-.2,.07-.34,.09-.63-.41-1.47-.37-1.82,.34-.02,.65,.65,.79,1.04,.44-.21,.84-.52,1.26-.77-.04-.37-.07-.75-.08-1.12m.65-9.97c.13-.45,.56-.69,1.16-.67,.35-.02,.38,.38,.14,.39-.69,.11-.78,.51-.53,1.16-.61,.06-.9-.41-.77-.88m.59,3.8c.23,.43-.01,.91-.23,1.14-.38,.41-.88,.46-1.15,.19,.14-.37,.28-.43,.66-.6,.31-.14,.69-.46,.72-.73m-8.63-1.51c-.48-.14,.08-.63-.24-.79-.28-.14-.52,.15-.64,.33-.23-.28-.11-.96,.71-.93,.46,.01,.64,.38,.61,.73-.03,.35-.18,.76-.45,.66m1.28,3.67c-.18-.21-.33-.45-.22-.96,.23,.37,.54,.49,.89,.59,.35,.1,.66,.24,.7,.59-.46,.4-1.07,.14-1.38-.22m5.17,.94q-.21,.1-.41,.27c-.15,.2-.09,.53,0,.84,.12,.44,0,.76-.35,.83-.29,.06-.57,0-.74-.38-.18-.42-.24-.76-.12-1.07-.43,.03-.71,.02-.95,0-.2-.01-.47,0-.63-.17-.2-.22-.43-.73-.15-.9,.29-.18,1.05-.24,1.27-.25-.2-.56-.71-.59-.89-.95-.16-.31-.28-.73-.15-1.23-.04,0-.5,.1-.68,.12-.52,.05-.77-.28-.86-.67-.06-.29-.27-.69-.55-.89,.06-.17,.26-.23,.43-.24,.3-.03,.3,0,.6,.02,.25,.02,.52,0,.74-.06,.33-.09,.38-.16,.61-.36,.15,.27,.17,.5,.13,.95-.05,.46-.07,1,.03,1.46,.13,.56,.46,.71,1.01,.6,.58-.11,.57-.35,.55-.75-.08-1-.8-1.31-.4-2.47,.29,.25,.71,.2,1.26,.09,.33-.06,.66-.34,1.14-.14-.29,.45-.17,.59-.23,1.01-.13,.86-.98,.98-1.53,.93,.44,.57,.42,.93,.31,1.38-.14,.56-.32,.42-.37,.98,.31-.12,1.18-.53,1.39-.31,.26,.55,.31,.99-.46,1.36"/>
    <path class="cls-3" d="M26.28,37.31c-.33-.29-.75-1.13-.6-1.4,.43,0,.94,.75,1.38,1.23,.45,.49,1.19,.64,1.44,1.32-.04-.92-.28-1.51-.91-2.03-.32-.26-.8-.58-1.2-.82,.09-.06,.15-.04,.36-.04,.19,0,.53,.19,.69,.27,.34,.17,.46,0,.82,.32,.07-.07-.39-.78-.63-1-.23-.21-.55-.4-.84-.48-.5-.15-1.2-.12-1.62-.31-.39-.17-.5-.24-.92-.57-.23,.95-.46,1.29-1.15,1.85-.26,.22-.39,.32-.55,.2-.13-.11-.14-.23-.16-.37-.02-.16-.03-.32-.05-.48-.43,.24-.82,.56-1.26,.77,0,0,0,0,0,0,.19,.55,.16,.98,.04,1.51-.2,.84-.06,1.62,.09,2.42,.09,.51,1.05,1.46,1.1,1.82,.15-.44-.37-1.39-.4-1.68-.06-.48-.14-.72-.13-1.18,0-.45,.14-1.25,.21-1.26,.19,.17,.49,.82,.44,1.52-.04,.67,.21,1.12,.56,1.54,.2,.24,.53,.23,.63,.72,.13-.43,.08-.69,.02-.94-.14-.61,.01-.74,.05-1.39q.03-.5-.09-1.02c-.08-.35-.02-.81,.13-.98,.19,.06,.44,.72,.44,1.07,0,.32,.03,.99,.2,1.34,.24,.5,.91,.91,.88,1.31,.32-1.04,.22-1.95-.14-3.04-.13-.41-.37-.9-.34-1.41,.4,.15,.76,1.33,.91,1.76,.11,.32,.1,.33,.3,.57,.24,.29,.47,.51,.81,.66,.61,.27,.81,.65,1.07,1.18,.06-.26,.04-.68-.17-1.23-.32-.88-.69-1.13-1.4-1.75"/>
    <path class="cls-3" d="M27.39,31.85c-.27-.72-.85-.62-1.31-.97-.13-.1-.34-.41-.45-.6-.09,.18-.1,.53,.14,.76,.26,.26,.63,.43,.9,.69,.37,.35,.31,.78,.92,1.09-.85,.41-1.37-.78-1.93-.54,.19,1.08,1.43,.89,1.93,1.75-.6-.19-.94-.09-1.51-.12-.24-.01-.69-.11-.89-.23-.57-.34-.51-.57-.38-1.01,.19-.64,.52-.92,.34-1.64-.04-.19-.06-.39-.06-.6,0-.59,.68-1.5,.14-2.21,.26,.18,.59,.43,.61,.84,.06,.66,.15,1.19,.82,1.47,.99,.41,.78,1.25,.72,1.31"/>
    <path class="cls-3" d="M44.12,47.22c-.68,.16-1.37,.3-2.05,.47-.62,.16-1.06,.15-1.44-.53-.29-.53-.55-.52-.55-.52,0,0-.03,.25-.39,.29-.12,.01-.56-.02-.71-.06-.47-.1-1.11-.21-1.57-.19,.27,.23-.04,.5-.21,.53-.7,.12-1.59,.16-2.32,.24,.43,.22,.52,.92-.08,1.08-.45,.12-1.14,.12-1.54,.41,.56,.39,.14,.76,.02,.87-.22,.2-.42,.35-.79,.5-.37,.15-.83,.32-.92,.56,.77,.18-.16,.99-.43,1.28-.3,.33-.47,.4-.54,.79,.46,0,1,.12,.73,.54-.27,.48-.72,1.24-.84,1.51-.1,.24-.22,.47-.34,.71,1.04-.59,1.44-.86,2.32-.22,.2,.14,.29,.17,.52,.12,.28-.06,.51-.16,.74-.33,.49-.35,.81-.27,.99,.31,.87-.88,1.69-1.19,2.13-.69,.31-.37,.62-.74,.93-1.11,.44-.53,.95-.61,1.13,.13,.19-.39,.3-.62,.45-.87,.22-.37,.37-.88,.68-.95,.14-.03,.29-.07,.42,.19,.05-.19,.06-.46,.07-.59,.04-.51,.06-1.02,.1-1.55,.47,.24,1.09,1.99,1,2.62-.02,.41-.19,.34-.17,0,.02-.31-.12-.59-.27-.77-.21-.24-.23-.09-.28,.19-.11,.69-.22,1.39-.35,2.18-.05,.24-.2,.18-.16,.04,.01-.03,.05-.26,.05-.29,0-.36,.03-1.06-.35-.82-1.35,1.03-.86,2.68-1.58,3.89-.1,.19-.24,.25-.01-.34,.11-.29,.18-.73,.15-1.19-.02-.32,.02-.49-.19-.42-.12,.05-.25,.1-.37,.16-.45,.23-.84,.5-1.21,1.09-.26,.36-.52,.73-.78,1.09-.17,.22-.24,.03,.09-.42,.26-.42,.31-.56,.39-.88,.03-.2-.06-.19-.25-.15-.22,.04-.57,.2-.47,.03,.04-.07,.55-.24,.84-.34,.28-.11,.35-.28,.74-.5-.58,.08-1,.08-1.38,.21-.8,.25-.96,.95-1.11,1.67-.07,.34-.25,.71-.5,.93-.11,.1-.23,.2-.35,.29,.22,.15,.43,.31,.66,.47,.57-.29,.98-.53,1.51-.77,.72-.32,1.91-.71,1.58,.14,.36-.03,.68-.29,.83-.44,.51-.54,.81-1.11,1.38-1.21,.13-.02,.26-.04,.39-.05,.24-.3,.51-.54,.78-.81-.12-.02-.34-.21-.3-.51,.02-.17,.13-.54,.16-.68,.1-.42,.42-.77,1.15-.59-.02-.4-.04-.74-.07-1.08-.06-.72,.37-.82,.94-.8-.12-.5-.22-.96-.34-1.41-.05-.21-.11-.42-.2-.6-.4-.76-.39-.89,.25-1.29,.66-.41,1.36-.65,2.08-.76-.23-.3-.47-.57-.76-.81m-4,2.26c-.43,.3-.6,.63-.64,1.1-.04,.5-.08,1.04-.29,1.54-.05,.11-.18,.18-.08-.17,.11-.41-.02-.88-.25-1.29-.63,.93-1.22,1.81-1.81,2.69-.13,.16-.23,.07-.15-.09,.31-.72,.87-1.48,1-2.34-.87,.38-1.4,.86-1.79,1.49-.36,.58-.66,1.2-.99,1.8-.11,.24-.32,.24-.19-.05,.16-.43,.4-.87,.41-1.4-1.01,.55-2.15,1.28-3.18,1.84-.22,.13-.37,0-.14-.19,.76-.61,1.76-1.12,2.55-1.98-.61-.21-1.33,.03-1.86,0-.15,.01-.23-.07-.02-.14,.78-.19,1.57-.36,2.35-.56,.78-.21,1.51-.5,2.03-1.26-.9,.1-1.72,.2-2.54,.29-.28,.05-.3-.06-.05-.15,.15-.05,1.59-.44,1.76-.48,1.02-.2,.79-.14,1.81-.35,.18-.04,.42-.12,.51-.3-.06-.26-.32-.33-.5-.35-.56-.07-1.13-.08-1.7-.11-.25,.03-.25-.15-.06-.19,.54-.08,1.07-.17,1.61-.18,.54-.01,1.1,.07,1.64,.13,.59,.06,1.04,.06,1.8,0-.68,.22-.84,.44-1.21,.69"/>
    <path class="cls-3" d="M67.5,39.88c-.01-.19-.37-.65-.12-.82,.12-.08-.06-.3-.1-.46-.02-.1-.21-.33-.23-.43-.05-.19,.06-.25,0-.44-.11-.41-.45-.83-.57-1.18-.14-.38-.07-.69-.19-.89-.03-.06-.38-.29-.41-.35-.22-.36-.12-.49-.31-.75-.25-.34-.61-.52-.83-.75-.22-.22-.29-.5-.52-.65-.07-.05-.33-.05-.39-.12-.47-.56-1.01-.48-1.27-.13-.46,.64-.9,1.29-1.33,1.94,.06,.04,.11,.09,.17,.13,.02-.03,.04-.06,.06-.09,.35-.43,.71-.85,1.09-1.24,.14-.14,.47-.4,.72-.25,.14,.08,.18,.24,.12,.39-.19,.42-.63,.83-.97,1.22,.32-.24,.61-.53,1.05-.83,.22-.15,.41-.34,.58-.2,.23,.2-1.25,1.44-1.55,1.79,.32-.12,1.38-1.03,1.64-1.13,.26-.1,.38-.07,.48,.03,.06,.06,.13,.24,.02,.37-.3,.49-1.99,1.46-2.27,1.76,1.37-.8,2.64-1.37,2.91-.99,.12,.13,.01,.37-.19,.5-.26,.15-1.37,.73-1.76,.97,.44-.11,1.57-.62,1.89-.64,.23-.01,.47-.09,.67,.23,.09,.23-.29,.47-.52,.58-.21,.1-.65,.22-1.05,.35,.5-.02,1.31-.1,1.66-.12,.04,.04,.23-.07,.26,.11,.09,.29-.4,.34-.56,.39-.47,.13-2.11,.49-2.09,.57,.55-.08,1.11-.19,1.66-.23,.34-.02,1.21-.05,1.26,.18,.09,.24,0,.5-.31,.5-.64,0-1.4,.12-2.14,.21,.76,0,1.35,.05,1.9,.02,.31-.01,.75,.03,.83,.33,.03,.1-.01,.36-.16,.37-1.97,.15-2.25,0-3.46,0,0,.16-.08,.21-.13,.38,.44,0,.89-.01,1.33-.02,.9,0,1.42,.12,2.32,.11,.53,0,.83-.41,.81-.74"/>
    <path class="cls-3" d="M62.61,40.15c.18-.29,.1-.47,.38-.61-.11-.05-.54-.11-.41-.21,.2-.17,.05-.38,.29-.54-.55-.26-.82-1.61-.7-1.69-.18-.06-.63-.45-.71-.71-.07-.22,.07-.63,.27-.77-.31-.04-.49-.33-.33-.62-.05-.04-.11-.09-.17-.13-.04,.06-.08,.12-.12,.18-.18,.28-.37,.35-.7,.23-.23-.08-.73-.06-.62-.22-.12-.01-.27,0-.46,.06-.28,.08-1.17-.2-.91-.29-.43-.12-.82-.05-1.25,.26,0,0-.03-.03-.05-.04-.1-.06-.15-.22-.15-.22,0,0-.67,.31-.9,.57-.27,.3-.67,1.16-.82,.87-.17,.28-.19,.65-.27,.98-.03,.13-.21,.6-.28,.31-.2,.15-.22,.47-.21,.75,0,.16,.09,.36,.02,.48-.26,.45-.03,.78,.2,1.12,.2,.3,.04,.75,.56,.92,.47,.16,.4,.71,.09,1.13-.39,.53-.86,.57-1.5,.37,.12,.42,.04,.66-.14,.81,.17,.28,.29,.58,.42,.87,.73-.37,1.43-.8,2.03-1.39,.3-.29,.64-.18,.92,.12,.13,.15,.24,.32,.4,.43,.31,.24,.64,.44,.85,.59-.06-.41,1.34-.01,1.73-.01-.31-.23,.75-.4,1.23-.61-.46-.6,.66-.47,.95-.84-.3-.02-.45-.11-.32-.28,.3-.26,.57-.49,.74-.64-.26-.12-.05-.49-.07-.7,.15,0,.3-.13,.44-.14,.05-.16,.12-.21,.13-.38h-.56Zm-1.49,1.61c-.61,.33-.74,.9-1.4,1.09-.14,.04-.29,.07-.47,.11-.33,.02-.15-.3-.13-.51-.19,.21-.46,.39-.73,.36-.23-.02-.06-.41,.06-.59-.13,.11-.31,.11-.34,.11-.24,.01-.47-.02-.53-.24-.02-.07,0-.26,.06-.4-.66,.14-1-.16-1.08-.58-.05-.28-.03-.44,.13-.57-.06-.01-.43,.14-.62,.22-.3-.02-.27-.7-.21-1.14-.13,.21-.3,.44-.37,.24-.2-.41,.09-.45,.14-1.05,.02-.25,.22-.38,.36-.66-.38,.14-.75,.16-1.03,0,.37-.54,.82-.84,1.18-1.06-.39,.03-.5-.16-.55-.29q-.05-.14,.07-.35c.23-.42,.64-.71,.99-1.07,.45,.62,.87,.58,1.28,.07,.1-.13,.59-.15,.66-.06,.24,.34,.45,.32,.83,.27,.4-.06,.84,.12,1.26,.19,.19,.03,.19,.16,.04,.25-.15,.14-.17,.12-.32,.27-.1,.1-.32,.37-.41,.48,.11,.08,.96-.67,1.19-.17,.27,.16,.37,.37,.26,.8-.05,.22,.29,.54,.48,.87-.2,.3-.05,.66,.05,1.1,.2,.84-.72,2.87-.89,2.3"/>
    <path class="cls-3" d="M53.37,51.49c.31-.18,.58-.44,.72-.64,1.21-1.39,1.81-2.85,2.68-4.33,.15-.3,.36-.18,.25,.01-.26,.66-.46,1.28-.81,1.94-.14,.27-.05,.28,.11,.23,.37-.12,.75-.2,1.09-.37,.88-.45,1.15-.61,1.76-1.4,.07-.09,.49-.73,.62-.79,.12-.16,.28-.04,.18,.12-.42,.67-.83,1.33-1.23,1.98,1.65,.38,2.91-.44,4.08-1.52,.17-.16,.32,0,.13,.18-.4,.41-.8,.83-1.24,1.28,1.26,.43,2.82-.21,3.33-.87,.06-.07,.29-.11,.11,.18-.18,.22-.42,.52-.76,.8,1.03-.03,2.14-.28,3.14-.53,.22-.07,.28,.14,.05,.17-.63,.21-1.25,.44-1.88,.62-.41,.12-.84,.2-1.27,.24-.22,.02-.26,.15-.26,.23,0,.06,.09,.2,.15,.26,.12,.11,.28,.18,.41,.24,.17,.08,.48-.03,.64,.08,.15,.16-.31,.15-.54,.15-.15,0-.46-.07-.62-.22-.5-.48-.99-.66-1.66-.6-.28,.02-.71,.01-1,.05,.13,.27,.38,.59,.63,.76,.21,.14,.47,.34,.61,.46,.14,.13,.01,.25-.26,.06-.8-.5-1.52-1.16-2.36-1.4-.81-.24-1.98-.1-2.65,.06-.24,.08-.13,.14,.02,.24,.75,.36,1.53,.47,2.23,.97,.21,.18,.07,.31-.11,.2-.17-.11-.36-.19-.54-.26-.96-.35-1.95-.63-2.98-.38-.42,.11-.83,.36-1.17,.63-.35,.28-.22,.75,.21,.82,.75,.11,1.46,.28,1.95,1.03,.34-.4,.5-.57,.39-1.01,.72,.17,1.2,.76,1.55,1.06,.06-.16,.12-.35,.27-.51,.15-.21,.36-.24,.57-.27,.48-.06,.66,.1,1.1,.48,.67-.76,.97-.81,2.48-.2-.09-.64,.32-.98,1.05-.8,.73,.17,.97-.15,1.5-.72,.2-.22,.68-.34,.92-.53-.56-.5,.17-.86,.34-.93,.72-.32,1.27-.64,1.71-1.4,.17-.3,.5-.4,.66-.53-1.1-.26-1.47,.07-2.24,.09-.47,0-1.12,0-.57-1-1.09-.05-1.76,.35-2.4,.23-.23-.04-.37-.08-.45-.37-.03-.12,.03-.38,.06-.5-.23,.11-.42,.13-.54,.04-.31-.23-.11-.4,0-.55,.14-.2,.3-.37,.48-.52-.43-.31-.87-.62-1.34-.88-.27,.26-.55,.53-.83,.78-.38,.35-.82,.68-1.3,.86-.19,.07-.34,0-.56-.22-.15-.16-.36-.38-.66-.42-.57,1.24-1.69,1.51-2.27,.63-.34,.11-.7,.35-1.03,.85-.23,.35-.56,.58-.88,.59-.25,0-.35-.03-.46-.21-.22,.13-.56,.46-.68,.63-.31,.44-.53,.95-.37,1.6,.11,.42,.11,.87-.03,1.34-.12,.4-.28,.81-.66,1.14,.03,.28,.05,.57,.08,.85,.11-.08,.23-.16,.35-.24"/>
    <path class="cls-3" d="M52.93,56.68c-.32,.09-.62,.26-.93,.4-.45,.21-.99-.02-.77-.52,.28-.44,.51-.93,.87-1.29,.35-.36,.78-.62,1.27-.74-.02-.18-.05-.35-.07-.53-.34,.07-.7,.12-1.03,.22-.4,.11-.47-.19-.41-.49,.16-.81,.51-1.5,1.15-1.99-.03-.28-.06-.56-.08-.85-.36,.31-.85,.55-1.4,.68-.1-.5-.63-1.19,.25-1.27-.32-.29-.68-.52-.91-.84-.22-.32-.32-.72-.46-1.1-.43-1.12,.23-2.99,1.3-3.6,.2-.12,.52-.21,.71-.13,.19,.08,.29,.39,.46,.63,.17-.34,.28-.79,.59-.94,.22-.1,.48-.23,.69-.34-.13-.29-.25-.59-.42-.87-.13,.11-.32,.17-.53,.23-.58,.15-1.15,.36-1.71,.59-.1,.04-.38,.2-.52,.25-1,.66-1.17,.63-1.54,.67,.68,.57,.09,1.23-.35,1.49-.36,.21-.88,.07-1.12-.1-.17-.12-.32-.24-.48-.48-.23-.36-.31-.86-.18-1.2-.25-.06-.52-.09-.78-.19,.02,.08,.01,.16-.01,.23-.07,.21-.24,.21-.36,.24-.22,.05-.46,.04-.76,0-.59-.06-.94-.28-.63-1.09-1.76,1.3-3.93,.8-4.98-.5,.06,.41,.31,1.16,.48,1.43,.4,.64,.91,1.02,1.54,1.54,.14-.5,.89-.7,1.53-.47,.2,.07,1.1,.38,1.5,.55,.14,.06,.37,.12,.35,.4-.02,.23-.26,.29-.41,.33-.22,.05-.43,.1-.65,.15,.29,.24,.53,.52,.76,.81,.62-.09,1.26-.08,1.91,0,.66,.09,.77,.2,.99,.52,.29,.42,.09,.79,.08,1.11,0,.13,.05,.53,.06,.52,.39-.68,.73-.62,1.14,.17,.21,.39,.41,.79,.55,1.21,.19,.56,.26,.88-.31,1.39-.27,.25-.39,.43-.47,.72,1.14-.72,.99,1.26,.98,1.52,0,.76-.63,1.12-.98,1.69-.12,.19-.2,.26-.27,.59,.59-.43,.66,0,.59,.51-.02,.13-.03,.23-.04,.3,.71,.34,1.5,.63,2.3,.53,.27-.63,.74-1.02,1.42-1.35,.29-.14,.57-.24,.86-.34-.02-.21-.05-.43-.07-.64-.23,.06-.47,.12-.7,.19"/>
    <path class="cls-3" d="M68.72,55.61c-.04-.32,.18-.69,.58-.95-.88-.39-1.71-.49-2.6-.54-.43-.03-.59-.3-.34-.72,.09-.15,.15-.17,.4-.43-.72-.19-1.38-.2-1.96-.15-.27,.02-.41,0-.49-.13-.09-.12-.11-.27,.05-.49-.18-.06-.67,.09-.9,.12-.79,.11-1.6-.17-2.38,.21-.15,.07-.55,.16-.69-.16-.01-.03-.05-.16-.02-.23-.09-.02-.31,.06-.38,.09-.62,.25-1.2,.33-1.86,.05-.06-.02-.12-.03-.19-.03-.23,.02-.5,.16-.75,.19-.39,.05-.81-.06-1.2-.01-.21,.03-.41,.1-.6,.26-.11,.09-.28,.14-.35,.25-.41,.72-1.06,.92-1.74,1.06,.02,.18,.05,.35,.07,.53,.1-.02,.2-.05,.31-.06,.52-.06,1.02-.17,1.22,.54,.05,.17,.33,.25,.47,.4,.1,.11,.2,.28,.2,.42,0,.09-.18,.21-.3,.25-.55,.15-1.1,.28-1.65,.42,.03,.21,.05,.42,.07,.64,.17-.06,.35-.12,.53-.18,.52-.18,1.06-.34,1.6-.43,.39-.06,.73-.09,1.22-.1,.85-.01,1.18,.24,1.74,.75,.13,.12,.29,.28,.59,.46-.03-.22,.04-.33,.24-.45,.09-.06,.55,0,.72,.09,.44,.22,1.46,.88,1.65,.99,0-.35,.25-.32,.39-.34,.95-.01,4.05,2.51,5.01,4.49,.37-.49,.4-.83-.39-1.76-.54-.64-.97-1.07-1.52-1.7-.11-.13-.45-.42-.28-.71,.14-.27,.35-.25,.56-.23,.27,.04,.38,.12,.59,.25,.23-.22,.23-.39,.14-.69,.47,.18,.74,.29,1.44,.22-.14-.22-.1-.33,.17-.4,.72-.15,1.37,0,2.18,.27-.19-1-.74-1.6-1.54-2.05m-.89,1.01c-.51-.39-1.41-.91-2.38-1.04,.35,.42,.67,1.05,.83,1.4,.11,.19-.05,.3-.15,.14-.89-.97-1.98-2.25-3.27-1.95,.46,.64,.71,1.21,.9,1.91,.03,.2-.15,.23-.22,.04-.15-.44-.38-.86-.66-1.16-.4-.43-.76-.72-1.21-1.1-.35-.29-1.16-.45-1.56-.04,.64,.49,.97,1.19,.99,1.62,0,.15-.07,.24-.18,.01-.31-.88-1.67-2.19-3.06-1.78,.44,.4,.77,.74,.96,1.32,.1,.28-.09,.35-.19,.1-.64-1.17-2-1.77-3.44-2.08,1.45-.02,2.83-.07,4.09-.89,.16-.11,.29,.08,.08,.22-.22,.2-.43,.4-.64,.6,1.68,.45,3.01-.05,4.64-.75,.24-.06,.24,.09,.08,.16-.33,.23-.84,.51-1.34,.86,.94,.05,1.45,.23,1.91,.11,.46-.11,.94-.15,1.43-.19,.08,0,.26-.04,.28,.05,.05,.11-.21,.15-.28,.16-.4,.07-.72,.09-1.23,.35,1.55,.42,3.07,1.08,3.74,1.79,.14,.12,0,.21-.12,.13"/>
    <path class="cls-3" d="M47.8,44.2c1.08-.05,1.48-.92,2.42-1.36,.14-.07,.28-.15,.32-.24-1.08-.02,.72-1.22,.7-1.93-.54,.19-.34-.37-.27-.57,.25-.72,.24-.76,.49-1.31,.05-.1,.31-.63,.27-.82-.17,.11-.33,.11-.5,.11-.02,0,.32-1.91,.28-2.21-.19,.08-.58,.19-.55-.13,.07-.81,.26-1.18,.5-1.71-.14,.04-.72,.06-.5-.6,.09-.28,.42-.92,.35-1.33-.84,.28-.37-.63-.15-.97,.12-.19,.28-.36,.65-.58-.27,0-.54,0-.81,.11-.41,.17-.57,.24-.94,.47-.84,.51-.84,.52-1.54-.18-.69,.73-.99,1.44-1.46,2.13-.18,.21-.47,.05-.73-.42-.34,.48-.36,1.4-.49,2.06-.09,.45-.3,.45-.35,.46-.1,.01-.17,.04-.33-.16-.11,.25-.1,.25-.15,.51-.08,.45-.07,.84-.09,1.27-.02,.36-.13,1.03-.55,1.15,.35,.29,.54,.74,.63,1.27,.1,.55,.16,.76-.25,.93-.21,.09-.44,.1-.66,.06-.01,.19,.1,.58,.22,.83,.3,.59,.57,1.55,.22,2,.55-.1,1.06,.18,1.56,.69,.17,.18,.38,.42,.42,.66,.26,.1,.52,.13,.78,.19,.08-.22,.24-.37,.5-.38m-1.77-2.96c-.18-.15-.46-.4-.53-.61-.07-.21,1.18,.8,1.69,.88,.05-.7,.15-1.48-.29-2.12-.39-.57-.71-1.2-1.01-1.83-.06-.13-.15-.49-.17-.72-.02-.17,.03-.28,.11-.13,.46,.93,.8,1.63,1.51,2.26,.81-1.5-.07-2.56-.24-3.7-.1-.63,.08-.23,.12-.11,.23,.59,.38,.85,.71,1.24,.15,.15,.26,0,.26-.09,.06-1.19,0-2.36,0-3.55,0-.16,.16-.17,.17,0,.05,.52,.07,1.31,.29,1.86,.04,.1,.06,.07,.09,.01,.46-.85,.85-1.85,1.26-2.61,.11-.23,.24-.17,.09,.19-.53,1.45-.96,2.8-1.5,4.24-.05,.08,0,.13,.07,.06,.3-.28,.59-.59,.88-.86,.24-.21,.8-.5,1.1-.49,.3,.01-.23,.18-.4,.3-1.54,1.07-2.41,3.47-2.34,5.71,1.08-.91,2.5-2.58,2.79-2.94,.32-.4-.06,.5-.2,.69-.79,1.05-1.39,1.84-2.39,2.72-.25,.22-.41,.56-.46,.9-.04,.27,.02,.23,.12,.16,.32-.21,1.24-.8,1.08-.49-.43,.45-1.18,1.28-1.29,1.35-.16,.1-.28,.02-.37-.05-.06-.05-.06-.25-.04-.35,.17-.96-.49-1.44-1.11-1.94"/>
    <path class="cls-3" d="M82.54,45.56c-.03-.12-.76-1.84-.85-2.52-.14-1.01-.05-1.96,.14-2.93,.02-.12,.07-.3,.02-.36-.93-.92-1.71-1.82-2.82-2.73-.54-.45-1.49-1.09-3.72-2.38-1.25-.63-1.93,.01-2.69,.93-.5,.61-.92,1.29-1.37,1.94-.12-.24-.1-.37,.01-.61,.17-.35,.46-.71,.07-1.16-.58-.65-1.1-1.35-1.63-2.04-.3-.4-1.05-1.94-1.25-2.6-.28-.59-.87-.8-1.48-.88-.84-.1-1.69-.12-2.52-.28-.73-.14-1.43-.49-2.16-.65-.39-.09-.83-.02-1.24,.05-.38,.07-.74,.26-1.12,.33-.36,.07-.6,.15-.66,.59-.03,.25-.21,.55-.42,.69-.98,.67-1.69,1.44-1.87,2.71,.86,.16,.81-.33,1.17-.76v.89c1.31-.01,2.55-.87,2.04-2.06,.06-.02,.13-.08,.16-.07,.51,.23,.95,.2,1.4-.21,.17-.16,.55-.16,.82-.13,1.13,.14,2.24,.37,3.19,1.08,.84,.62,1.53,1.33,1.88,2.35,.58,1.71,1.18,3.42,1.84,5.1,.11,.29,.35,.58,.93,.54,.42-.03,.83-.1,1.25-.15,.27,0,.12,.27,.09,.4-.12,.26-.62,.43-.94,.43-1.68,0-3.33,.58-5.03,.22-.38-.08-.94,.02-1.23,.26-.66,.55-1.27,1.17-1.9,1.77,.47,.26,.91,.58,1.34,.88,.92-.8,2.29-.96,3.57-.66,.67,.16,1.54,.36,2.17,.54,.91,.27,1.42,.45,2.3,.81,.58,.24,1.13,.55,1.64,.91,.47,.32,.93,.33,1.42,0,.69-.45,1.35-.8,2.1-1.16,.5-.24,.74,.19,.49,.3-.48,.33-.61,.42-1.18,.82-.24,.17-.5,.31-.71,.5-.67,.59-1.12,.55-1.77,.42-.43-.08-.77-.47-1.2-.57-.4-.05-.43,.18-.17,.42,.42,.45,.86,.88,1.26,1.36,.54,.65,1.33,.74,2.05,.98,.34,.12,.66,.3,1.01,.36,.49,.09,1.03,.23,1.5,.13,1.16-.23,2.28-.53,3.28-1.32,.78-.61,.81-1.35,.82-2.11,0-.19,0-.27-.04-.39m-6.55-1.32c-.64,.31-1.28,1.1-2.01,.81-.64-.26-1.39-.68-2.03-.94-.2-.08-.23-.34,.08-.27,.25,.05,.6,.18,.81,.25,.87,.25,1.59,.56,2.39-.19,.28-.27,1.33,.04,.75,.34"/>
    <path class="cls-3" d="M89.26,77.63c-.19-.83-.57-1.81-.79-2.68-.1-.41,.02-.66,.36-.85-.25-.62-.64-1.1-1.07-1.6-.02,.05-.03,.11-.05,.18-.06,.18-.35,.25-.48,.07-1.36-2.8-3.45-4.56-6-6.2,.41-1.71-.29-2.73-1.89-3.27-.82-.06-1.25,.65-1.3,.76-.35,.66-.06,1.56,.25,2.09,.43,.73,1.22,1.08,1.92,1.05,.34-.01,.7,.24,1.01,.44,1.37,.84,2.65,1.8,3.73,2.99,.56,.61,.9,1.18,1.34,1.89,.1,.16,.29,.69,0,.85-.36,.21-.6-.08-1.02-.56-.55-.64-1.03-1.12-1.57-1.67-.54-.55-1.06-1.14-1.64-1.65-.66-.57-1.8-1.27-2.45-1.6-1.06-.53-1.37-.64-2.37-1.13-.17-.08-.4-.3-.39-.43,.09-.85-.41-1.47-.81-2.12-.14-.23-.44-.37-.69-.52-.49-.28-.37,.28-.56,.42-.14,.1-.33,.17-.5,.17-1.97-.01-3.75,.39-5.57,1.33-.35,.18-.65,.53-1.02,.37-.27-.12-.4-.62-.62-.95-.43-.67-.55-1.1-1.01-1.74-.58-.83-1.35-1.74-2.03-2.32-1.88-1.6-3.99-2.82-6.66-2.82-1.55,0-2.98,.3-4.4,.79-.38,.13-.73,.37-1.11,.53-.15,.06-.4,.08-.5,0-.09-.08-.08-.34-.03-.49,.02-.04,.03-.08,.05-.12-.8,.1-1.58-.19-2.3-.53-.04,.25-.04,.25-.11,.55-.05,.21-.41,.42-.55,.25-.2-.25-.33-.42-.6-.75-.65-.77-1.3-1.15-2.15-1.53-1.36-.62-2.58-1-4.31-1.05-.06,0-.12,0-.17-.01-.27,.26-.54,.51-.78,.81,.89-.1,1.82,0,2.71,.15,.99,.18,1.72,.5,2.56,1.11,.55,.4,.96,.83,1.27,1.35,.29,.51,.18,.69,.13,.74-.15,.16-.43,.31-1.03,.07-.83-.28-1.13-.43-1.88-.67-1.67-.54-3.39-.64-5.1-.37-1.61,.25-3.2,1.09-4.45,2.11-1.06,.87-1.83,1.81-2.82,2.76-.19,.19-.47,.43-.7,.42-.68-.03-.94-.52-.55-1.08,.54-.8,1.14-1.57,1.77-2.3,.49-.57,.69-.76,1.31-1.22,.24-.18,.84-.62,1.11-.74-.22-.16-.44-.33-.66-.47-.77,.63-1.6,1.21-2.31,1.9-.84,.82-1.52,1.79-2.31,2.66-.47,.51-.37,.44-1.01,.49-.22,.7-.89,2.21-.56,2.34,.98,.39,1.65,.5,2.62,0,.31-.16,.69-.22,1.04-.27,.25-.04,.37-.01,.47-.22,.66-1.41,1.13-1.78,2.14-2.87,.9-.97,2.04-1.8,3.15-2.31,.74-.34,2.03-.6,2.82-.63,1.52-.06,3.13-.23,4.32,1.07,.14,.15,.22,.37,.16,.65-.04,.2-.33,.21-.5,.2-.62-.03-1.16-.11-1.85-.14-1.03-.05-2.1-.05-3.09,.2-1.5,.38-3.06,1.2-4.2,2.4-.8,.84-1.39,1.41-1.91,2.56-.26,.57-.44,1.17-.68,1.75-.31,.71-.81,.85-1.42,.38-1.45-1.14-3.13-1.59-4.92-1.68-.77-.04-1.55-.05-2.31,.04-1.25,.14-1.86,.22-3.02,.59-1.18,.37-2.82,1.33-3.98,2.52-.82,.85-1.18,1.16-1.86,2.09-.53,.72,.04,2.04,.9,2.12,.83,.08,1.2-.56,1.68-1.02,.29-.28,.5-.58,.81-.89,.47-.47,1.05-.88,1.63-1.21,.91-.52,1.49-.77,2.52-1.02,.86-.21,1.88-.28,2.76-.24,1.08,.04,1.91,.14,2.63,.94,.32,.35,.4,.79,.28,1.13-.1,.27-.73,.05-.99-.06-1.31-.54-2.67-.69-4.06-.52-.56,.07-1.14,.24-1.63,.52-.67,.38-1.36,.84-1.84,1.44-.61,.74-1.46,1.8-1.22,1.93,.12,.07,.46-.19,.59-.32,.61-.58,1.16-1.23,1.8-1.77,1.44-1.2,2.8-1.21,4.76-.78,.8,.18,1.59,.66,2.36,.95,.69,.25,1.25-.07,1.21-.68-.07-1.35,.79-2.47,2.12-2.6,.5-.05,1.03,.15,1.53,.28,.58,.15,.94-.03,1.08-.61,.12-.49,.01-.72-.03-1.07-.04-.3-.09-.58-.11-.86-.09-.97,.5-1.83,1.26-2.75,.58-.69,1.68-1.5,2.45-1.96,1.5-.89,3.14-1.21,4.86-.82,.77,.17,1.52,.44,2.27,.67,1.1,.34,1.89-.12,2.12-1.15,.02-.1,.07-.19,.13-.27,.44-.55,1-.49,1.55,.15,.67,.79,1.9,.84,2.53,.09,.41-.49,.72-1.17,1.24-1.46,1.02-.56,2.12-1.09,3.25-1.31,1.58-.31,3.49-.25,5.01,.43,.94,.42,1.4,.59,2.46,1.43,1.75,1.37,3.12,3.08,3.74,5.28,.25,.89,.17,1.13,.11,1.84-.04,.47-.57,.82-.92,.69-.18-.07-.31-.24-.32-.54-.02-1.54-.66-2.28-1.38-3.35-.4-.6-1.04-1.41-1.87-2.14-.95-.84-1.77-1.55-3.84-2.16-.9-.27-1.42-.23-2.41-.19-1.27,.05-2.34,.35-3.17,1.28-.44,.5-.46,1.41-.04,1.72,.37,.28,.87,.41,1.41,.16,.51-.24,.58-.74,.52-1.22-.06-.52,.12-.8,.61-.95,1.73-.51,3.37-.22,4.82,.74,1.13,.74,2.14,1.61,2.93,2.77,.55,.8,1.17,1.44,1.45,2.53,.07,.29-.02,.78-.07,1.09-.12,.74,.2,1.61,1.19,1.45,.66-.11,1.26-.28,1.53-.9,.16-.36,.25-.63,.49-1.11,.3,.89,.53,1.24,1.44,1.4,.02,0,.11,.25,.13,.3,.26,.68,1.09,1.13,1.95,.74,.91-.41,1.88-.4,2.85-.44,2.28-.09,4.24,.62,5.98,2.09,.95,.81,1.69,1.71,2.39,2.69,.73,1.01,1.23,2.26,1.36,3.59,.06,.64,.11,1.02-.57,1.29-.57,.22-.77,.86-.68,1.36,.09,.49,.43,1.01,1.12,1.02,.46,0,.92,.02,1.37,.09,1.09,.17,2.03-.38,2.28-1.4,.1-.4,.28-.55,.72-.44,1.03,.25,1.33-.09,1.52-1.03,.09-.42-.08-.83-.21-1.41m-9.03-11.32c-.42,.21-.85-.23-1.14-.53-.35-.36-.49-1.06-.35-1.31,.29-.51,.61-.63,1.22-.19,.95,.64,.8,1.76,.28,2.03m-50.41,3.2c-.25,.34-.47,.38-.72,.37-.4,0-.81-.12-1.18-.27-1.72-.74-3.47-.7-5.22-.31-1.06,.24-2.13,.57-3.08,1.09-.81,.43-1.46,.97-2.1,1.57-.47,.43-.74,.69-1.14,1.05-.1,.09-.36,.26-.59,0-.14-.11-.22-.23-.03-.61,.23-.45,.33-.69,.57-.96,.76-.86,1.3-1.54,2.39-2.25,.89-.58,1.34-.89,2.33-1.24,.77-.27,2.16-.49,2.99-.52,1.46-.05,2.93,.02,4.31,.58,.48,.2,.89,.41,1.31,.72,.29,.22,.35,.56,.17,.79m39.46-2.11c-.25,.05-.72,.12-.82-.16-.18-.37,.12-.65,.3-.75,.76-.42,1.55-.82,2.37-1.11,1.22-.42,2.48-.58,3.78-.43,.49,.06,.84,.4,.84,.91,0,.6-.42,.67-.88,.68-.3,0-.6,0-.9,0-.94,.01-2.12,.07-3.13,.36-.55,.16-1.03,.39-1.55,.51m16.88,13.03c-.29,.5-1.27,.48-1.32-.16-.05-.52-.05-.54-.13-1.06-.21-1.33-.31-2.71-1.01-3.91-.7-1.2-1.35-2.08-2.59-3.32-2.17-2.18-4.5-2.78-7.37-3-1.04-.08-2.09,.05-3.13,.05-.37,0-.71-.2-.72-.61,0-.19,.02-.4,.36-.58,.54-.3,.99-.43,1.79-.52,.58-.06,1.4-.06,1.99-.06,2.84-.01,5.17,1.13,6.71,2.17,1.24,.84,2.65,2.57,3.49,3.77,1.1,1.56,1.5,2.53,2.03,4.28,.25,.84,.36,2.14-.11,2.95m2.19-1.55c-.1,.17-.33,.37-.49,.37-.2,0-.51-.17-.58-.34-.27-.71-.39-1.44-.61-2.16-.08-.51,.17-.71,.53-.87,.49-.21,.89,.06,1.03,.43,.3,.82,.62,1.69,.12,2.56"/>
    <path class="cls-2" d="M91.78,50.46c-.55-.78-1.02-1.48-1.58-2.26-.38-.53-.73-.94-1.08-1.52-.62-1.03-.99-1.3-1.35-2.98-.18-.81-.12-1.66,.03-2.44,.14-.7,.46-.98,.91-.96,.39,.01,.61,.2,.85,.51,.16,.21,.43,.57,.31,1.16-.1,.52,.89,1.12,.92,2.22,.29-1.99-.24-3.24-1.29-4.14,.23-.03,.47-.04,.67,.03,1.16,.4,1.21,2.06,1.16,3.11-.05,.98-.13,2.22-.06,2.67,.06,.45,.18,1.67,1.45,2.48-.69-1.04-1-1.38-.89-3.04,.1-1.5,.04-1.92-.03-2.64-.1-1.09-.37-1.55-.5-1.81-.12-.26-.38-.51-.38-.51,.03,.01,.49,.26,.79,.84,.3,.58,.53,1.1,.53,1.97,0,.68,0,1.4-.02,1.9-.06,1.25,.19,1.88,.73,2.65,.45,.64,1.39,1.27,1.71,1.45-1.37-1.78-1.8-2.53-1.88-3.77-.06-.91,.06-1.73-.07-2.58-.26-1.71-.88-3.18-2.31-3.92-.22-.11-.66-.23-1.29-.28,.35-.11,1.45-.3,2.64,.68,.56,.46,.81,1.26,1.24,1.69,1.05,1.05,1.25,1.54,1.73,2.43-.03-.06-.78-2.69-2.03-4.04-.7-.75-1.88-1.11-1.91-1.11-1.93-.59-3.71,.77-4.18,2.58-.21,.81-.25,1.55-.23,2.22,.03,.98,.26,1.75,.82,2.86,.74,1.48,1.23,2.11,2.23,3.49,.72,1,1.45,1.92,2.09,2.99,.4,.67,.72,1.14,.88,2.17,.25,1.58-.69,1.94-1.7,1.75-1.62-.3-2.42-1.52-3.23-2.77-.86-1.33-1.56-2.77-2.35-4.15-.12-.2-.2-.36-.33-.53-.19,.21-.53,.59-.64,.69-1,.97-1.89,1.55-3.25,1.91-.86,.23-1.59,.18-2.44,.18,.19,.23,.48,.49,.63,.74,.34,.56,.56,.95,.82,1.55,.07,.16,.31,.79-.02,.76-.22,0-.4-.44-.47-.64-.23-.63-.41-.99-1-1.21-.68-.25-1.47-.5-2.16-.73-1.27-.42-2.52-.48-3.83-.03-.48,.2-.88,.69-.94,.76-.9,1.02-.89,2.65,.18,3.8,.79,.85,1.44,1.27,2.09,2.23,.35,.52,.64,1.39,.75,2.32-.69,.13-1.2,.26-1.72,.3-.44,.03-.91,.01-1.33-.11-1-.29-1.85,.03-2.51,.68-.58,.57-.98,1.34-1.47,2.03,1.51,.37,1.14-.66,1.81-.67-.1,.27-.2,.53-.34,.75,.68,.08,1.03-.1,1.4-.35,.72-.5,1.52-.7,2.34-.82,1.28-.19,2.57-.25,3.85-.41,.64-.08,.68-.66,.61-1.08-.08-.43-.44-1.31-.54-1.96-.04-.33-.08-.71,.05-.97,.22-.43,.87-.46,1.41-.18,.33,.17,.65,.32,1.03,.47,.4,.16,.71,.09,.85-.48,.29-1.22,.26-1.64,.92-3.01,.11-.23,.31-1.17,.41-1.6,.06-.26,.38-.26,.38,.02-.06,.51-.1,.98-.23,1.47-.14,.5-.43,.94-.55,1.43-.4,1.55-.41,2.38-.52,3.58-.11,1.23,.29,2.44,1,3.34,.79,1.01,1.88,1.83,3.2,2.21,1.03,.29,2.02,.7,2.4,1.82,.46,1.35,1.05,2.72,.95,4.16-.02,.33-.04,.46-.11,.71,.42,.5,.82,.98,1.07,1.6,.03-.02,.07-.04,.11-.06,.28-.13,.59-.39,.68-.66,.14-.42,.17-.91,.11-1.36-.13-1.1-.36-2.19-.5-3.3-.08-.63-.04-1.27-.11-1.89-.08-.75-.06-1.56-1-1.87-.31-.1-.59-.29-.87-.47-1-.67-1.36-2.85-.58-3.8,.75-.91,.94-2.03,1.28-3.08,.2-.62,.45-.83,.94-.42,.72,.6,2.2,.74,3.11,.53,.75-.17,1.36-.57,1.72-1.44,.42-1.02,.1-2.49-.51-3.64-.52-.97-.82-1.28-1.45-2.19m-15.18,11.38c-.22,.58-1.31,.5-1.96,.58,.46-.2,1.16-.43,1.44-.63,.26-.19,.44-.39,.43-.65,.05,.18,.15,.57,.1,.71m11.92,4.23c.22,.09,.26,.32,.29,.62,.06,.71,.06,.93,.12,1.69,.03,.42-.23,.19-.33,.8-.09-1.03-.24-2.14-.29-3-.02-.22,.06-.16,.21-.1"/>
    <path class="cls-2" d="M93.15,42.02c.09,.41,.23,.87,.26,1.64,.02,.55-.05,1.39,.08,1.88,.31,1.1,1.22,2.15,1.22,2.15,0,0-.73-1.52-.44-2.8,.17-.73,.02-1.1-.19-1.41-.15-.23-.38-.69-.93-1.46"/>
  </g>
  <g>
    <path class="cls-2" d="M75.71,51.02c-.54,0-.97-.27-.97-.62s.43-.62,.97-.62,.97,.27,.97,.62-.43,.62-.97,.62Zm0-.92c-.4,0-.65,.18-.65,.3s.25,.3,.65,.3,.65-.18,.65-.3-.25-.3-.65-.3Z"/>
    <path class="cls-2" d="M77.78,50.56h-1.59c-.09,0-.16-.07-.16-.16s.07-.16,.16-.16h1.59c.09,0,.16,.07,.16,.16s-.07,.16-.16,.16Z"/>
    <path class="cls-2" d="M78.29,51.02c-.54,0-.97-.27-.97-.62s.43-.62,.97-.62,.97,.27,.97,.62-.43,.62-.97,.62Zm0-.92c-.4,0-.65,.18-.65,.3s.25,.3,.65,.3,.65-.18,.65-.3-.25-.3-.65-.3Z"/>
    <g>
      <line class="cls-2" x1="73.58" y1="50.54" x2="75.16" y2="50.4"/>
      <path class="cls-2" d="M73.58,50.7c-.08,0-.15-.06-.16-.15,0-.09,.06-.17,.15-.17l1.58-.14c.09,0,.17,.06,.17,.15,0,.09-.06,.17-.15,.17l-1.59,.14s0,0-.01,0Z"/>
    </g>
    <path class="cls-2" d="M72.83,51.33c-.29,0-.52-.12-.6-.32-.07-.17-.03-.36,.12-.55,.13-.16,.32-.3,.54-.39,.18-.07,.36-.11,.53-.11,.29,0,.52,.12,.6,.32,.07,.17,.03,.36-.12,.55-.13,.16-.32,.3-.54,.39-.18,.07-.36,.11-.53,.11Zm.6-1.05c-.13,0-.27,.03-.41,.09-.17,.07-.32,.18-.41,.29-.07,.09-.1,.17-.07,.23,.03,.07,.15,.12,.3,.12,.13,0,.27-.03,.41-.09,.17-.07,.32-.18,.41-.29,.07-.09,.1-.17,.07-.23-.03-.07-.15-.12-.3-.12Z"/>
    <path class="cls-2" d="M80.47,50.63c-.34,0-.6-.14-.67-.37-.05-.18,0-.37,.16-.54,.14-.15,.34-.27,.58-.34,.15-.05,.3-.07,.44-.07,.34,0,.6,.14,.67,.37,.06,.17,0,.37-.16,.54-.14,.15-.34,.27-.58,.34-.15,.05-.3,.07-.44,.07Zm.51-1c-.11,0-.23,.02-.34,.06-.18,.06-.34,.15-.44,.26-.08,.08-.11,.16-.09,.22,.03,.08,.18,.14,.36,.14,.11,0,.23-.02,.34-.06,.18-.06,.34-.15,.44-.26,.08-.08,.11-.16,.09-.22-.03-.09-.18-.15-.37-.15Z"/>
    <g>
      <line class="cls-2" x1="78.73" y1="50.41" x2="80.3" y2="50.12"/>
      <path class="cls-2" d="M78.73,50.57c-.08,0-.14-.05-.16-.13-.02-.09,.04-.17,.13-.19l1.56-.29c.09-.02,.17,.04,.19,.13,.02,.09-.04,.17-.13,.19l-1.56,.29s-.02,0-.03,0Z"/>
    </g>
    <g>
      <line class="cls-2" x1="71.7" y1="52.07" x2="72.73" y2="50.86"/>
      <path class="cls-2" d="M71.7,52.23s-.07-.01-.1-.04c-.07-.06-.08-.16-.02-.23l1.02-1.22c.06-.07,.16-.08,.23-.02,.07,.06,.08,.16,.02,.23l-1.02,1.22s-.08,.06-.12,.06Z"/>
    </g>
    <path class="cls-2" d="M71.75,53.5c-.33,0-.62-.39-.67-.91-.05-.54,.18-.99,.53-1.02,.35-.03,.65,.37,.7,.91,.02,.24-.01,.48-.1,.66-.1,.22-.25,.34-.43,.36-.01,0-.03,0-.04,0Zm-.1-1.61c-.13,.01-.28,.28-.25,.67,.03,.38,.22,.62,.35,.62h0c.06,0,.12-.07,.17-.17,.06-.13,.08-.32,.07-.5-.03-.38-.22-.62-.35-.62Z"/>
    <path class="cls-2" d="M82.56,49.57c-.16,0-.29-.05-.38-.16-.12-.14-.14-.34-.07-.56,.07-.19,.2-.39,.39-.55,.24-.21,.52-.33,.76-.33,.16,0,.29,.05,.38,.16,.12,.14,.14,.34,.07,.56-.07,.19-.2,.39-.39,.55-.24,.21-.52,.33-.76,.33Zm.7-1.27c-.16,0-.37,.1-.54,.25-.14,.12-.25,.27-.29,.41-.04,.11-.03,.2,0,.24,.03,.04,.09,.05,.14,.05,.16,0,.37-.1,.54-.25,.14-.12,.25-.27,.3-.41,.04-.11,.04-.2,0-.24-.03-.04-.09-.05-.14-.05Z"/>
    <g>
      <line class="cls-2" x1="81.15" y1="49.86" x2="82.53" y2="49.07"/>
      <path class="cls-2" d="M81.15,50.02c-.06,0-.11-.03-.14-.08-.04-.08-.02-.18,.06-.22l1.38-.79c.08-.04,.18-.02,.22,.06,.04,.08,.02,.18-.06,.22l-1.38,.79s-.05,.02-.08,.02Z"/>
    </g>
    <g>
      <line class="cls-2" x1="83.2" y1="48.51" x2="83.79" y2="47.04"/>
      <path class="cls-2" d="M83.2,48.68s-.04,0-.06-.01c-.08-.03-.12-.13-.09-.21l.59-1.48c.03-.08,.13-.12,.21-.09,.08,.03,.12,.13,.09,.21l-.59,1.48c-.03,.06-.09,.1-.15,.1Z"/>
    </g>
    <path class="cls-2" d="M83.79,47.56s-.03,0-.04,0c-.18-.02-.34-.15-.43-.36-.08-.19-.11-.42-.09-.66,.05-.54,.36-.94,.71-.91,.18,.02,.33,.15,.43,.36,.08,.19,.11,.42,.09,.66-.05,.52-.34,.91-.67,.91Zm.12-1.61c-.13,0-.32,.23-.36,.62-.02,.18,0,.37,.06,.5,.05,.1,.11,.17,.17,.17h.01c.12,0,.31-.23,.35-.62,.02-.18,0-.37-.06-.5-.05-.1-.11-.17-.17-.17h0Z"/>
    <g>
      <line class="cls-2" x1="83.89" y1="46.16" x2="83.2" y2="44.73"/>
      <path class="cls-2" d="M83.89,46.32c-.06,0-.12-.03-.15-.09l-.69-1.43c-.04-.08,0-.18,.08-.21,.08-.04,.18,0,.21,.07l.69,1.43c.04,.08,0,.18-.08,.21-.02,.01-.05,.02-.07,.02Z"/>
    </g>
    <path class="cls-2" d="M83.32,45.33c-.25,0-.56-.16-.79-.43-.36-.41-.44-.91-.18-1.14,.08-.07,.19-.11,.32-.11,.25,0,.56,.16,.79,.43,.36,.41,.44,.91,.18,1.14-.08,.07-.19,.11-.32,.11Zm-.65-1.36s-.08,.01-.1,.03c-.1,.09-.04,.41,.21,.68,.26,.3,.56,.37,.65,.29,.09-.08,.06-.39-.21-.68-.2-.22-.42-.32-.55-.32Z"/>
    <g>
      <line class="cls-2" x1="82.68" y1="44.19" x2="81.2" y2="43.6"/>
      <path class="cls-2" d="M82.68,44.35s-.04,0-.06-.01l-1.47-.6c-.08-.03-.12-.13-.09-.21,.03-.08,.13-.12,.21-.09l1.47,.6c.08,.03,.12,.13,.09,.21-.03,.06-.09,.1-.15,.1Z"/>
    </g>
    <path class="cls-2" d="M78.96,62.84c-.29,0-.6-.26-.79-.66-.23-.49-.16-.99,.16-1.14,.06-.03,.12-.04,.18-.04,.29,0,.6,.27,.79,.66,.1,.22,.15,.45,.13,.66-.02,.23-.12,.41-.29,.48-.06,.03-.12,.04-.18,.04Zm-.45-1.52s-.03,0-.05,.01c-.11,.05-.16,.35,0,.71,.16,.35,.42,.52,.54,.46,.05-.03,.09-.11,.1-.22,.01-.15-.03-.33-.1-.5-.14-.31-.36-.47-.49-.47Z"/>
    <path class="cls-2" d="M77.47,60.89c-.22,0-.47-.08-.69-.23-.45-.3-.66-.76-.47-1.05,.09-.14,.25-.21,.46-.21s.47,.08,.69,.23c.2,.13,.37,.31,.46,.49,.11,.21,.11,.41,0,.56-.09,.14-.25,.21-.46,.21Zm-.7-1.18c-.09,0-.16,.03-.19,.07-.07,.1,.05,.39,.38,.61,.17,.11,.36,.18,.51,.18,.09,0,.16-.02,.19-.07,.03-.05,.02-.14-.03-.24-.07-.13-.19-.26-.35-.37-.17-.11-.36-.18-.51-.18Z"/>
    <g>
      <line class="cls-2" x1="78.54" y1="61.54" x2="77.46" y2="60.37"/>
      <path class="cls-2" d="M78.54,61.7s-.09-.02-.12-.05l-1.08-1.17c-.06-.07-.06-.17,0-.23,.07-.06,.17-.06,.23,0l1.08,1.17c.06,.07,.06,.17-.01,.23-.03,.03-.07,.04-.11,.04Z"/>
    </g>
    <g>
      <line class="cls-2" x1="79.38" y1="63.84" x2="78.92" y2="62.32"/>
      <path class="cls-2" d="M79.38,64c-.07,0-.13-.05-.15-.12l-.46-1.52c-.03-.08,.02-.17,.11-.2,.08-.03,.17,.02,.2,.11l.46,1.52c.03,.08-.02,.17-.11,.2-.02,0-.03,0-.05,0Z"/>
    </g>
    <path class="cls-2" d="M72.03,32.27c-.09,0-.18,0-.26-.02-.54-.09-.91-.43-.85-.78,.05-.28,.37-.47,.8-.47,.09,0,.18,0,.27,.02,.24,.04,.46,.13,.62,.26,.18,.15,.27,.33,.23,.51-.05,.28-.37,.47-.8,.47Zm-.32-.94c-.28,0-.46,.1-.48,.2-.02,.12,.2,.34,.59,.4,.07,.01,.14,.02,.21,.02,.28,0,.46-.1,.48-.2,.01-.06-.04-.14-.12-.21-.11-.09-.28-.16-.47-.2-.07-.01-.14-.02-.21-.02Z"/>
    <g>
      <line class="cls-2" x1="70.28" y1="31.65" x2="71.04" y2="31.58"/>
      <path class="cls-2" d="M70.28,31.81c-.08,0-.15-.06-.16-.15,0-.09,.06-.17,.15-.18l.76-.07c.09,0,.17,.06,.17,.15,0,.09-.06,.17-.15,.17l-.76,.07h-.01Z"/>
    </g>
    <path class="cls-2" d="M69.18,32.55c-.28,0-.49-.11-.58-.3-.14-.32,.14-.74,.63-.96,.19-.08,.38-.13,.56-.13,.28,0,.49,.11,.58,.3,.14,.32-.14,.74-.63,.96-.19,.08-.38,.13-.56,.13Zm.62-1.07c-.13,0-.29,.04-.43,.1-.36,.16-.52,.43-.47,.54,.03,.07,.14,.11,.28,.11,.13,0,.29-.04,.43-.1,.36-.16,.52-.43,.47-.54-.03-.07-.14-.11-.28-.11Z"/>
    <g>
      <line class="cls-2" x1="72.65" y1="31.89" x2="73.46" y2="32.25"/>
      <path class="cls-2" d="M73.46,32.42s-.04,0-.07-.01l-.81-.37c-.08-.04-.12-.13-.08-.21,.04-.08,.13-.12,.21-.08l.81,.37c.08,.04,.12,.13,.08,.21-.03,.06-.09,.1-.15,.1Z"/>
    </g>
    <path class="cls-2" d="M74.46,34.13c-.72,0-1.3-.58-1.3-1.3s.58-1.3,1.3-1.3,1.3,.58,1.3,1.3-.58,1.3-1.3,1.3Zm0-2.22c-.51,0-.92,.41-.92,.92s.41,.92,.92,.92,.92-.41,.92-.92-.41-.92-.92-.92Z"/>
  </g>
  <g>
    <path class="cls-2" d="M82.53,39.75c.41-.41,1.62-1.29,2.4-1.47l-.51-.9c-.01,.47-.27,.84-.47,1.01-.12-.31-.16-.64-.03-.94-.22,.2-.65,.46-.95,.59,.33,.09,.56,.19,.74,.48-.35,.17-1.02,.4-1.5-.18-.31-.38-.35-.89,.02-1.21,.12-.1,.32-.17,.5,0,.17,.16-.04,.47-.19,.54,.34,.06,1.09-.4,.78-.79-.24-.31-.89-.19-1.21,.02,.21-.38,.3-1.04-.02-1.25-.41-.28-.82,.49-.81,.76,.2-.21,.5-.3,.61-.2,.1,.09,.1,.36-.08,.56-.31,.33-.93,.24-1.31-.05-.42-.32-.54-.9-.13-1.56,.21,.22,.5,.7,.5,1.03,.24-.41,.41-.63,.76-.99-.38,.1-.82-.12-1.07-.26,.27-.22,.64-.38,1.07-.32l-1.3-1c.17,.4,.06,.76-.08,1.08-.2-.21-.51-.57-.52-.96-.25,.43-.42,.65-.76,.99,.31-.09,.84,.07,1.11,.21-.54,.57-1.16,.5-1.55,.25-.41-.26-.8-.77-.54-1.24,.13-.23,.48-.17,.59-.1,.12,.08,.17,.34,.02,.59,.3-.21,.8-.68,.43-1.01-.29-.25-.77-.02-1.08,.28,.12-.36-.02-1.02-.4-1.13-.47-.13-.65,.67-.5,.98,.03-.16,.26-.5,.46-.37,.2,.13,.14,.42,.06,.56-.23,.42-.75,.47-1.19,.23-.7-.38-.73-1.04-.42-1.39,.33,.1,.5,.3,.67,.6,.04-.33,.19-.81,.32-1.07-.26,.2-.6,.25-.94,.21,.11-.25,.4-.59,.85-.72l-1-.26c.04,.77-.6,2.16-.8,2.7,3.85,2.2,4.27,2.5,7.48,5.73"/>
    <path class="cls-2" d="M78.97,31.91c-.36,.21-.61,.3-.75,.56-.15,.25-.36,1.05-.41,1.36,.29-.21,.91-.79,1.04-1.02,.13-.23,.06-.71,.12-.9"/>
    <path class="cls-2" d="M83.6,35.45c-.13,.39-.17,.66-.39,.85-.22,.2-.95,.57-1.25,.69,.15-.33,.58-1.06,.78-1.23,.2-.18,.68-.2,.86-.3"/>
  </g>
  <g>
    <path class="cls-2" d="M49.28,7.54v-1.64c-.81,.17-1.45,.82-1.59,1.64h1.59Z"/>
    <path class="cls-2" d="M50.13,7.54h1.58c-.14-.82-.77-1.47-1.58-1.64v1.64Z"/>
    <path class="cls-2" d="M47.71,8.34c.2,.91,1.02,1.59,1.99,1.59s1.78-.68,1.99-1.59h-3.97Z"/>
    <path class="cls-2" d="M49.95,3.86c.1-.49,.32-.95,.74-1.47h-2.05c.42,.52,.64,.98,.74,1.47,.08-.05,.18-.09,.28-.09s.2,.03,.28,.09"/>
    <path class="cls-2" d="M49.39,4.7c-.08,.51-.2,1.06-.67,1.44,.72-.35,1.21-.36,2.02,0-.4-.29-.68-.94-.78-1.45-.08,.05-.18,.09-.28,.09s-.2-.03-.28-.08"/>
    <path class="cls-2" d="M49.22,4.05c-.51-.12-1.04-.39-1.37-.83v2.13c.33-.43,.87-.7,1.38-.83-.04-.07-.07-.16-.07-.24,0-.08,.02-.16,.06-.23"/>
    <path class="cls-2" d="M50.12,4.05c.03,.07,.06,.14,.06,.23,0,.09-.03,.17-.07,.24,.51,.13,1.05,.4,1.38,.83V3.23c-.33,.43-.86,.7-1.37,.83"/>
    <path class="cls-2" d="M49.67,4.85c-.31,0-.57-.26-.57-.57s.26-.57,.57-.57,.57,.26,.57,.57-.26,.57-.57,.57m0-1.01c-.24,0-.44,.2-.44,.44s.2,.44,.44,.44,.44-.2,.44-.44-.2-.44-.44-.44"/>
    <path class="cls-2" d="M48.45,16.14h2.5v-6.24h-2.5v6.24Zm1.21-.58c-.33,0-.59-.26-.59-.59s.26-.59,.59-.59,.59,.26,.59,.59-.26,.59-.59,.59m.04-1.36c-.33,0-.59-.26-.59-.59s.26-.59,.59-.59,.59,.26,.59,.59-.26,.59-.59,.59m0-1.37c-.33,0-.59-.26-.59-.59s.26-.59,.59-.59,.59,.26,.59,.59-.26,.59-.59,.59m.03-1.37c-.33,0-.59-.26-.59-.59s.26-.59,.59-.59,.59,.26,.59,.59-.26,.59-.59,.59"/>
    <path class="cls-2" d="M37.6,12.74c0,.33-.26,.59-.59,.59s-.59-.26-.59-.59,.26-.59,.59-.59,.59,.26,.59,.59"/>
    <path class="cls-2" d="M37.6,14.97c0,.33-.26,.59-.59,.59s-.59-.26-.59-.59,.26-.59,.59-.59,.59,.26,.59,.59"/>
    <path class="cls-2" d="M38.28,16.86c0,.33-.26,.59-.59,.59s-.59-.26-.59-.59,.26-.59,.59-.59,.59,.26,.59,.59"/>
    <path class="cls-2" d="M38.54,10.87c0,.33-.26,.59-.59,.59s-.59-.26-.59-.59,.26-.59,.59-.59,.59,.26,.59,.59"/>
    <path class="cls-2" d="M40.13,9.46c0,.33-.26,.59-.59,.59s-.59-.26-.59-.59,.26-.59,.59-.59,.59,.26,.59,.59"/>
    <path class="cls-2" d="M42.12,8.71c0,.33-.26,.59-.59,.59s-.59-.26-.59-.59,.26-.59,.59-.59,.59,.26,.59,.59"/>
    <path class="cls-2" d="M44.22,8.71c0,.33-.26,.59-.59,.59s-.59-.26-.59-.59,.26-.59,.59-.59,.59,.26,.59,.59"/>
    <path class="cls-2" d="M46.18,9.46c0,.33-.26,.59-.59,.59s-.59-.26-.59-.59,.26-.59,.59-.59,.59,.26,.59,.59"/>
    <path class="cls-2" d="M48.17,10.17c0,.33-.26,.59-.59,.59s-.59-.26-.59-.59,.26-.59,.59-.59,.59,.26,.59,.59"/>
    <path class="cls-2" d="M39.17,17.75v-.06c-.03-.09-.48-2.19,.43-3.1,.49-.49,1.03-.72,1.7-.72,.24,0,.48,.03,.69,.06,.23-.42,.82-1.29,1.71-1.3h.06c.82,0,1.6,.28,2.62,.95,.46,.3,.99,.45,1.6,.45,.19,0,.36-.01,.49-.02,.14-.01,.25-.02,.33-.01h.06s-.03,.45-.03,.45h-.06c-.06,0-.16,0-.28,0-.14,.01-.32,.02-.52,.02-.71,0-1.32-.17-1.86-.52-.94-.61-1.65-.87-2.37-.87h-.05c-.59,0-1.1,.62-1.39,1.19l-.07,.14-.3-.04c-.21-.03-.43-.06-.65-.06-.54,0-.97,.18-1.37,.59-.73,.73-.33,2.67-.33,2.69v.06s-.43,.1-.43,.1Z"/>
    <path class="cls-2" d="M39.32,17.87l-.04-.05c-.05-.07-1.27-1.7-1.53-3.33-.25-1.59,.52-2.94,1.25-3.61,.39-.35,1.82-1.54,3.49-1.44,1.2,.07,2.09,.51,2.8,.86,.18,.09,.36,.18,.53,.25,.71,.31,1.87,.54,2.68,.54,.1,0,.19,0,.28-.01h.06s.04,.44,.04,.44h-.06c-.09,.01-.19,.02-.3,.02-.88,0-2.11-.25-2.87-.58-.17-.07-.35-.16-.54-.26-.68-.34-1.52-.75-2.63-.82-1.5-.09-2.81,1-3.16,1.32-.14,.13-1.4,1.34-1.11,3.21,.24,1.52,1.43,3.11,1.44,3.13l.04,.05-.36,.27Z"/>
    <rect class="cls-2" x="38.06" y="16.26" width=".61" height=".48" transform="translate(-3.29 19.52) rotate(-27.41)"/>
    <rect class="cls-2" x="37.43" y="14.55" width=".61" height=".48" transform="translate(-2.34 8.76) rotate(-12.85)"/>
    <rect class="cls-2" x="37.5" y="12.63" width=".48" height=".61" transform="translate(16.32 46.59) rotate(-76.44)"/>
    <rect class="cls-2" x="38.24" y="11.02" width=".48" height=".61" transform="translate(6.37 35.36) rotate(-53.21)"/>
    <rect class="cls-2" x="39.68" y="9.77" width=".48" height=".61" transform="translate(.46 21.82) rotate(-30.73)"/>
    <rect class="cls-2" x="41.44" y="9.12" width=".48" height=".61" transform="translate(-1 7.38) rotate(-10.01)"/>
    <rect class="cls-2" x="43.17" y="9.24" width=".61" height=".48" transform="translate(24.08 49.53) rotate(-76.47)"/>
    <rect class="cls-2" x="44.95" y="9.94" width=".61" height=".48" transform="translate(16.94 46.93) rotate(-65.06)"/>
    <rect class="cls-2" x="47.13" y="10.68" width=".61" height=".48" transform="translate(28.71 55.85) rotate(-80.34)"/>
    <path class="cls-2" d="M61.9,12.68c0,.33,.26,.59,.59,.59s.59-.26,.59-.59-.26-.59-.59-.59-.59,.26-.59,.59"/>
    <path class="cls-2" d="M61.9,14.92c0,.33,.26,.59,.59,.59s.59-.26,.59-.59-.26-.59-.59-.59-.59,.26-.59,.59"/>
    <path class="cls-2" d="M61.21,16.8c0,.33,.26,.59,.59,.59s.59-.26,.59-.59-.26-.59-.59-.59-.59,.26-.59,.59"/>
    <path class="cls-2" d="M60.96,10.82c0,.33,.26,.59,.59,.59s.59-.26,.59-.59-.26-.59-.59-.59-.59,.26-.59,.59"/>
    <path class="cls-2" d="M59.37,9.4c0,.33,.26,.59,.59,.59s.59-.26,.59-.59-.26-.59-.59-.59-.59,.26-.59,.59"/>
    <path class="cls-2" d="M57.38,8.65c0,.33,.26,.59,.59,.59s.59-.26,.59-.59-.26-.59-.59-.59-.59,.26-.59,.59"/>
    <path class="cls-2" d="M55.27,8.65c0,.33,.26,.59,.59,.59s.59-.26,.59-.59-.26-.59-.59-.59-.59,.26-.59,.59"/>
    <path class="cls-2" d="M53.32,9.4c0,.33,.26,.59,.59,.59s.59-.26,.59-.59-.26-.59-.59-.59-.59,.26-.59,.59"/>
    <path class="cls-2" d="M51.33,10.11c0,.33,.26,.59,.59,.59s.59-.26,.59-.59-.26-.59-.59-.59-.59,.26-.59,.59"/>
    <path class="cls-2" d="M60.33,17.7l-.44-.1v-.06s.42-1.95-.31-2.69c-.41-.41-.83-.59-1.37-.59-.22,0-.44,.03-.65,.06l-.3,.04-.07-.14c-.29-.57-.8-1.18-1.39-1.19h-.06c-.72,0-1.43,.26-2.37,.87-.54,.35-1.15,.52-1.86,.52-.2,0-.38-.01-.52-.02-.11,0-.21-.02-.28-.01h-.06s-.03-.45-.03-.45h.06c.09,0,.2,0,.33,0,.14,.01,.31,.02,.49,.02,.62,0,1.14-.15,1.6-.45,1.02-.66,1.8-.95,2.63-.95h.05c.89,.01,1.48,.88,1.71,1.3,.21-.03,.45-.06,.69-.06,.67,0,1.21,.23,1.7,.72,.91,.91,.47,3.01,.45,3.1v.06Z"/>
    <path class="cls-2" d="M60.18,17.81l-.36-.27,.04-.05s1.21-1.62,1.44-3.13c.29-1.86-.97-3.08-1.11-3.21-.35-.32-1.66-1.41-3.16-1.32-1.11,.06-1.95,.48-2.63,.82-.18,.09-.37,.18-.55,.26-.76,.33-2,.58-2.87,.58-.11,0-.21,0-.3-.01h-.06s.04-.45,.04-.45h.06c.08,.01,.18,.02,.27,.02,.82,0,1.97-.23,2.69-.54,.16-.07,.34-.16,.52-.25,.72-.35,1.6-.79,2.8-.86,1.68-.1,3.11,1.09,3.49,1.44,.73,.67,1.5,2.02,1.25,3.61-.26,1.63-1.48,3.26-1.53,3.33l-.04,.05Z"/>
    <rect class="cls-2" x="60.89" y="16.14" width=".48" height=".61" transform="translate(18.46 63.21) rotate(-62.68)"/>
    <rect class="cls-2" x="61.52" y="14.43" width=".48" height=".61" transform="translate(33.65 71.67) rotate(-77.15)"/>
    <rect class="cls-2" x="61.45" y="12.64" width=".61" height=".48" transform="translate(-1.3 14.85) rotate(-13.57)"/>
    <rect class="cls-2" x="60.71" y="11.03" width=".61" height=".48" transform="translate(5.39 38.76) rotate(-36.77)"/>
    <rect class="cls-2" x="59.27" y="9.78" width=".61" height=".48" transform="translate(20.49 56.09) rotate(-59.24)"/>
    <rect class="cls-2" x="57.51" y="9.13" width=".61" height=".48" transform="translate(38.55 64.68) rotate(-79.99)"/>
    <rect class="cls-2" x="55.78" y="9.13" width=".48" height=".61" transform="translate(-.66 13.31) rotate(-13.47)"/>
    <rect class="cls-2" x="54" y="9.83" width=".48" height=".61" transform="translate(.78 23.82) rotate(-24.94)"/>
    <rect class="cls-2" x="51.82" y="10.56" width=".48" height=".61" transform="translate(-1.08 8.88) rotate(-9.65)"/>
    <path class="cls-2" d="M40.8,23.14c.31,0,.57,.13,.64,.36,.09,.31-.2,.67-.65,.81-.12,.04-.24,.05-.35,.05-.02,0-.03,0-.05,0-.29-.01-.52-.14-.59-.36-.07-.23,.08-.5,.36-.67,.09-.05,.18-.1,.29-.13,.12-.04,.24-.05,.35-.05m0-.13c-.13,0-.26,.02-.39,.06-.11,.04-.22,.09-.32,.15-.34,.21-.5,.53-.41,.82,.08,.26,.35,.43,.7,.45,.02,0,.04,0,.05,0,.13,0,.26-.02,.39-.06,.24-.07,.45-.21,.59-.38,.15-.19,.2-.39,.14-.58-.08-.27-.38-.45-.76-.45"/>
    <path class="cls-2" d="M58.43,23.14c.11,0,.23,.02,.35,.05,.14,.04,.26,.11,.36,.18,.23,.17,.35,.41,.28,.62-.06,.18-.24,.31-.48,.35-.05,0-.11,.01-.16,.01-.11,0-.23-.02-.35-.05-.45-.14-.74-.5-.65-.81,.07-.22,.33-.36,.64-.36m0-.13c-.38,0-.68,.18-.76,.45-.06,.19,0,.4,.14,.58,.14,.17,.35,.31,.59,.38,.13,.04,.26,.06,.39,.06,.06,0,.12,0,.18-.01,.29-.05,.51-.21,.58-.43,.08-.26-.05-.55-.33-.76-.12-.09-.25-.16-.4-.2-.13-.04-.26-.06-.39-.06"/>
    <path class="cls-2" d="M43.83,14.85c-.31,.78-.6,1.24-.51,1.82,.08,.59,.72,2.12,1.01,2.7,.2-.7,.5-2.39,.42-2.92-.08-.53-.78-1.2-.92-1.59"/>
    <path class="cls-2" d="M55.62,14.87c.27,.79,.53,1.27,.42,1.84-.11,.58-.83,2.08-1.15,2.64-.16-.71-.37-2.41-.27-2.94,.11-.53,.84-1.16,1-1.54"/>
    <path class="cls-2" d="M49.65,28.17c-4.89,0-10.08-.86-10.08-2.45s5.19-2.46,10.08-2.46,10.08,.86,10.08,2.46-5.19,2.45-10.08,2.45Zm0-4.52c-5.71,0-9.69,1.09-9.69,2.07s3.98,2.07,9.69,2.07,9.69-1.09,9.69-2.07-3.98-2.07-9.69-2.07Z"/>
    <path class="cls-2" d="M39.88,19.72c.6-.2,1.1-.08,1.7,.18-.33-.57-.69-1.53-.81-2.12-.16,.63-.63,1.11-1.19,1.46,.16,.11,.27,.28,.29,.49Z"/>
    <path class="cls-2" d="M39.52,19.2c-.11-.53-.05-1.4,.49-2.14l-1.93,.82c.31,.36,.56,.82,.78,1.32,.1-.05,.21-.09,.33-.09s.23,.03,.32,.08Z"/>
    <path class="cls-2" d="M39.8,20.14c.06-.1,.09-.21,.09-.33,0-.03,0-.06,0-.09-.03,.01-.07,.02-.1,.04-.01,.13,0,.26,.02,.38Z"/>
    <path class="cls-2" d="M39.59,19.24s-.04-.02-.07-.04c0,.02,0,.05,.01,.07,.02-.01,.04-.02,.05-.03Z"/>
    <path class="cls-2" d="M39.2,20.63c-.45,0-.82-.37-.82-.82s.37-.82,.82-.82,.82,.37,.82,.82-.37,.82-.82,.82Zm0-1.39c-.31,0-.56,.25-.56,.56s.25,.57,.56,.57,.56-.25,.56-.57-.25-.56-.56-.56Z"/>
    <path class="cls-2" d="M49.65,19.05c-.48,0-.86-.39-.86-.86s.39-.86,.86-.86,.86,.39,.86,.86-.39,.86-.86,.86Zm0-1.47c-.33,0-.61,.27-.61,.61s.27,.61,.61,.61,.61-.27,.61-.61-.27-.61-.61-.61Z"/>
    <path class="cls-2" d="M60.34,19.35c.25-.55,.54-1.05,.89-1.47l-1.93-.82c.5,.69,.59,1.48,.51,2.02,.21,.01,.4,.12,.52,.28Z"/>
    <path class="cls-2" d="M59.57,19.11c-.47-.34-.86-.77-.99-1.33-.11,.59-.47,1.55-.81,2.12,.48-.2,.89-.32,1.34-.26,.05-.25,.22-.45,.46-.53Z"/>
    <g>
      <path class="cls-2" d="M50.31,18.49c.61,.16,1.44,.52,1.79,.98-.13-.96-.13-1.52,0-2.51-.43,.55-1.23,.77-1.81,.87,.06,.11,.09,.23,.09,.36,0,.11-.03,.22-.07,.31Z"/>
      <path class="cls-2" d="M59.55,22.31s-.09-.02-.14-.04c.16-.66,.33-1.27,.51-1.83-.05,0-.09,.01-.14,.01-.21,0-.39-.09-.52-.23-.43,.65-1.18,1.36-2.35,1.08-.97-.22-1.65-1-1.46-1.97,.06-.31,.31-.67,.79-.63,.48,.04,.51,.8,.36,1.09,.62-.32,1.26-1.99,.28-2.23-.77-.19-1.67,.8-1.92,1.52-.14-.87-.8-2.04-1.57-1.99-1.01,.06-.71,1.81-.36,2.23,.06-.58,.43-1.1,.73-1.08,.27,.02,.61,.46,.56,.99-.09,.92-1.2,1.54-2.17,1.54s-1.83-.66-2.08-2.01c-.12,.09-.27,.14-.43,.14s-.29-.05-.41-.13c-.27,1.33-1.27,1.88-2.12,1.96-.99,.08-2.23-.26-2.4-1.33-.08-.52,.57-.87,.83-.88,.3-.02,.69,.34,.75,.92,.23-.71,.45-2.08-.56-2.14-.77-.05-1.26,.91-1.4,1.78-.25-.72-1.29-1.62-2.03-1.32-.91,.37-.21,1.88,.41,2.19-.15-.29-.2-1.11,.28-1.16,.49-.04,.74,.5,.78,.81,.15,.96-.63,1.68-1.63,1.84-1.37,.22-2.21-.52-2.36-1.33-.1,.17-.26,.3-.47,.35,.18,.57,.35,1.17,.52,1.78-.06,.02-.12,.03-.18,.05-.12,.03-.21,.1-.28,.21-.06,.1-.08,.22-.05,.34,.05,.2,.23,.34,.44,.34,.04,0,.08,0,.11-.01,.07-.02,.14-.03,.21-.05,0,0,0,0,0,0,0,.03,0,.06,.01,.08,.01,.04,.02,.08,.03,.12,.09-.05,.18-.1,.29-.13,.45-.14,.89,0,.99,.3,.09,.31-.2,.67-.65,.81-.14,.04-.27,.06-.4,.05,.01,.19,0,.38-.06,.6,2.63-1.28,6.55-1.42,9.33-1.42,0,0,5.42-.35,9.26,1.42,0-.24,.01-.42,.03-.61-.15,.02-.33,.01-.51-.04-.45-.14-.74-.5-.65-.81,.09-.31,.54-.44,.99-.3,.14,.04,.26,.11,.36,.18,.02-.06,.03-.12,.05-.18,0-.01,0-.03,0-.04,.04,0,.07,.02,.11,.03,.04,.01,.08,.02,.12,.02,.2,0,.38-.13,.43-.33,.07-.24-.07-.49-.31-.55Zm-14.77,1.12c-.59,.08-1.11-.12-1.15-.44-.04-.29,.34-.58,.85-.69,.1-.01,.21-.03,.32-.04,.52-.02,.94,.17,.98,.45,.04,.32-.41,.64-1,.71Zm4.91-.25c-.6,0-1.08-.26-1.08-.58s.48-.58,1.08-.58,1.08,.26,1.08,.58-.48,.58-1.08,.58Zm6.02-.19c-.04,.32-.55,.51-1.15,.44-.59-.08-1.04-.4-1-.71,.04-.28,.45-.47,.96-.45,.12,.01,.24,.03,.37,.05,.5,.11,.85,.4,.82,.68Zm3.9-.2c-.03,.1-.14,.16-.24,.13-.04-.01-.08-.02-.12-.03-3.06-.84-6.25-1.27-9.46-1.27s-6.48,.42-9.76,1.25c-.07,.02-.13,.03-.2,.05-.1,.03-.21-.04-.23-.14-.01-.05,0-.1,.02-.15,.03-.04,.07-.08,.12-.09,.06-.02,.12-.03,.19-.05,3.32-.84,6.64-1.27,9.87-1.27s6.46,.43,9.55,1.28c.04,.01,.09,.02,.13,.03,.1,.03,.16,.14,.13,.24Z"/>
      <path class="cls-2" d="M50.13,17.62c.2-.61,.59-1.21,1.26-1.59h-3.33c.67,.37,.96,.97,1.13,1.57,.12-.1,.28-.16,.45-.16,.18,0,.35,.07,.48,.18Z"/>
      <path class="cls-2" d="M49.01,17.81c-.57-.11-1.34-.33-1.76-.86,.12,1,.12,1.55,0,2.51,.33-.45,1.13-.8,1.73-.96-.05-.1-.08-.21-.08-.32,0-.13,.04-.26,.1-.37Z"/>
    </g>
    <path class="cls-2" d="M59.79,20.58c-.45,0-.82-.37-.82-.82s.37-.82,.82-.82,.82,.37,.82,.82-.37,.82-.82,.82Zm0-1.39c-.31,0-.56,.25-.56,.56s.25,.57,.56,.57,.56-.25,.56-.57-.25-.56-.56-.56Z"/>
    <path class="cls-2" d="M42.22,26.57c-.09,0-.16-.06-.19-.14-.03-.1,.03-.21,.14-.24,1.9-.5,4.64-.79,7.53-.79s5.58,.28,7.47,.77c.1,.03,.17,.13,.14,.23-.03,.1-.13,.16-.24,.14-1.86-.48-4.55-.76-7.37-.76s-5.57,.28-7.44,.78c-.02,0-.03,0-.05,0Z"/>
    <path class="cls-2" d="M45.26,24.88c-.2-.2,0-.49,.46-.38,.46,.1,.38,.35,.92,.38-.12,.18-1.17,.2-1.38,0"/>
    <path class="cls-2" d="M49.43,24.67c-.2-.2,0-.49,.46-.38,.46,.1,.38,.35,.92,.38-.12,.18-1.17,.2-1.38,0"/>
    <path class="cls-2" d="M53.51,24.95c-.21-.2,0-.49,.46-.38,.46,.1,.38,.35,.92,.38-.12,.18-1.17,.2-1.38,0"/>
    <path class="cls-2" d="M41.36,25.57c-.21-.2,0-.49,.46-.38,.46,.11,.38,.35,.92,.38-.12,.18-1.17,.2-1.38,0"/>
    <path class="cls-2" d="M57.05,25.57c-.21-.2,0-.49,.46-.38,.46,.11,.38,.35,.92,.38-.12,.18-1.17,.2-1.38,0"/>
  </g>
  <g>
    <path class="cls-2" d="M17.82,17.66l-.09-.55c-.26,.1-.44,.35-.44,.63l.53-.08Z"/>
    <path class="cls-2" d="M18.1,17.62l.53-.08c-.09-.27-.34-.45-.61-.46l.09,.55Z"/>
    <path class="cls-2" d="M17.34,18.01c.12,.29,.42,.48,.75,.42,.32-.05,.56-.32,.58-.63l-1.32,.21Z"/>
    <path class="cls-2" d="M17.85,16.4c0-.17,.06-.33,.17-.53l-.68,.11c.17,.15,.27,.29,.32,.45,.02-.02,.05-.04,.09-.04,.04,0,.07,0,.1,.01"/>
    <path class="cls-2" d="M17.71,16.71c0,.17-.01,.36-.15,.52,.22-.15,.38-.18,.67-.11-.15-.08-.28-.28-.34-.44-.02,.02-.05,.04-.09,.04-.03,0-.07,0-.1-.01"/>
    <path class="cls-2" d="M17.62,16.51c-.17-.01-.37-.08-.5-.2l.11,.71c.09-.16,.25-.28,.41-.35-.02-.02-.03-.05-.03-.08,0-.03,0-.05,0-.08"/>
    <path class="cls-2" d="M17.92,16.46s.03,.04,.03,.07c0,.03,0,.06,0,.08,.18,.01,.37,.08,.5,.2l-.11-.71c-.09,.16-.25,.28-.41,.35"/>
    <path class="cls-2" d="M17.81,16.75c-.1,.02-.2-.06-.22-.16-.02-.1,.05-.2,.16-.22,.11-.02,.2,.06,.22,.16,.02,.1-.05,.2-.16,.22m-.05-.34c-.08,.01-.14,.09-.12,.17,.01,.08,.09,.14,.17,.12,.08-.01,.14-.09,.12-.17-.01-.08-.09-.14-.17-.12"/>
    <path class="cls-2" d="M17.67,18.49l.33,2.08,.83-.13-.33-2.08-.83,.13Zm.7,1.82c-.11,.02-.21-.06-.23-.17-.02-.11,.06-.21,.17-.23,.11-.02,.21,.06,.23,.16,.02,.11-.06,.21-.17,.23m-.06-.46c-.11,.02-.21-.06-.23-.16-.02-.11,.06-.21,.17-.23,.11-.02,.21,.06,.23,.17,.02,.11-.06,.21-.17,.23m-.07-.45c-.11,.02-.21-.06-.23-.16-.02-.11,.06-.21,.17-.23,.11-.02,.21,.06,.23,.17,.02,.11-.06,.21-.17,.23m-.06-.46c-.11,.02-.21-.06-.23-.17-.02-.11,.06-.21,.17-.23s.21,.06,.23,.17c.02,.11-.06,.21-.17,.23"/>
    <path class="cls-2" d="M14.21,20.01c.02,.11-.06,.21-.17,.23-.11,.02-.21-.06-.23-.16-.02-.11,.06-.21,.17-.23,.11-.02,.21,.06,.23,.17"/>
    <path class="cls-2" d="M14.33,20.75c.02,.11-.06,.21-.17,.23-.11,.02-.21-.06-.23-.16-.02-.11,.06-.21,.17-.23,.11-.02,.21,.06,.23,.17"/>
    <path class="cls-2" d="M14.65,21.35c.02,.11-.06,.21-.17,.23-.11,.02-.21-.06-.23-.16-.02-.11,.06-.21,.17-.23,.11-.02,.21,.06,.23,.16"/>
    <path class="cls-2" d="M14.42,19.34c.02,.11-.06,.21-.17,.23-.11,.02-.21-.06-.23-.17-.02-.11,.06-.21,.17-.23s.21,.06,.23,.16"/>
    <path class="cls-2" d="M14.88,18.79c.02,.11-.06,.21-.17,.23s-.21-.06-.23-.17c-.02-.11,.06-.21,.17-.23s.21,.06,.23,.16"/>
    <path class="cls-2" d="M15.5,18.43c.02,.11-.06,.21-.17,.23-.11,.02-.21-.06-.23-.16-.02-.11,.06-.21,.17-.23,.11-.02,.21,.06,.23,.17"/>
    <path class="cls-2" d="M16.2,18.32c.02,.11-.06,.21-.17,.23-.11,.02-.21-.06-.23-.16-.02-.11,.06-.21,.17-.23,.11-.02,.21,.06,.23,.16"/>
    <path class="cls-2" d="M16.89,18.47c.02,.11-.06,.21-.17,.23-.11,.02-.21-.06-.23-.17-.02-.11,.06-.21,.17-.23,.11-.02,.21,.06,.23,.16"/>
    <path class="cls-2" d="M17.59,18.6c.02,.11-.06,.21-.17,.23-.11,.02-.21-.06-.23-.16-.02-.11,.06-.21,.17-.23,.11-.02,.21,.06,.23,.17"/>
    <path class="cls-2" d="M15.01,21.57s-.27-.69-.02-1.04c.23-.32,.52-.33,.75-.34h.01c.05-.15,.2-.47,.49-.52,.27-.05,.55,0,.93,.17,.3,.13,.57,.07,.73,.03,.04-.01,.08-.02,.11-.02v.11s-.04,.01-.08,.02c-.16,.04-.47,.11-.8-.04-.36-.16-.61-.21-.87-.16-.21,.04-.35,.27-.42,.49v.04s-.1,0-.1,0c-.23,0-.46,.01-.66,.29-.21,.3,.03,.93,.03,.93l-.1,.04Z"/>
    <path class="cls-2" d="M15.05,21.6s-.51-.5-.68-1.02c-.16-.51,.02-.99,.22-1.25,.11-.14,.52-.6,1.07-.66,.4-.04,.72,.06,.97,.14,.07,.02,.13,.04,.19,.06,.29,.08,.76,.08,1.02,.02l.03,.11c-.28,.07-.77,.06-1.08-.02-.06-.02-.13-.04-.19-.06-.24-.08-.55-.17-.93-.13-.51,.05-.89,.48-1,.62-.04,.05-.4,.53-.2,1.15,.16,.5,.65,.97,.65,.97l-.07,.08Z"/>
    <rect class="cls-2" x="14.56" y="21.14" width=".21" height=".16" transform="translate(-9.73 12.84) rotate(-36.4)"/>
    <rect class="cls-2" x="14.26" y="20.61" width=".21" height=".16" transform="translate(-6.67 6.84) rotate(-21.88)"/>
    <rect class="cls-2" x="14.18" y="19.97" width=".16" height=".21" transform="translate(-6.91 32.64) rotate(-85.28)"/>
    <rect class="cls-2" x="14.35" y="19.39" width=".16" height=".21" transform="translate(-9.53 23.24) rotate(-62.37)"/>
    <polygon class="cls-2" points="14.85 19.13 14.71 18.98 14.84 18.87 14.97 19.03 14.85 19.13"/>
    <polygon class="cls-2" points="15.35 18.82 15.28 18.62 15.43 18.57 15.5 18.76 15.35 18.82"/>
    <rect class="cls-2" x="15.89" y="18.54" width=".21" height=".16" transform="translate(-3.84 33.07) rotate(-85.42)"/>
    <rect class="cls-2" x="16.52" y="18.68" width=".21" height=".16" transform="translate(-5.96 29.63) rotate(-74.17)"/>
    <polygon class="cls-2" points="17.3 18.99 17.31 18.78 17.47 18.78 17.47 18.99 17.3 18.99"/>
    <path class="cls-2" d="M22.3,18.71c.02,.11,.12,.18,.23,.16s.18-.12,.17-.23c-.02-.11-.12-.18-.23-.17-.11,.02-.18,.12-.17,.23"/>
    <path class="cls-2" d="M22.41,19.45c.02,.11,.12,.18,.23,.16s.18-.12,.17-.23c-.02-.11-.12-.18-.23-.17-.11,.02-.18,.12-.17,.23"/>
    <path class="cls-2" d="M22.29,20.12c.02,.11,.12,.18,.23,.17,.11-.02,.18-.12,.17-.23-.02-.11-.12-.18-.23-.16-.11,.02-.18,.12-.17,.23"/>
    <path class="cls-2" d="M21.88,18.14c.02,.11,.12,.18,.23,.16,.11-.02,.18-.12,.17-.23-.02-.11-.12-.18-.23-.16-.11,.02-.18,.12-.17,.23"/>
    <path class="cls-2" d="M21.28,17.75c.02,.11,.12,.18,.23,.17,.11-.02,.18-.12,.17-.23-.02-.11-.12-.18-.23-.17-.11,.02-.18,.12-.17,.23"/>
    <path class="cls-2" d="M20.58,17.61c.02,.11,.12,.18,.23,.16,.11-.02,.18-.12,.17-.23-.02-.11-.12-.18-.23-.17-.11,.02-.18,.12-.17,.23"/>
    <path class="cls-2" d="M19.88,17.72c.02,.11,.12,.18,.23,.17,.11-.02,.18-.12,.17-.23-.02-.11-.12-.18-.23-.16-.11,.02-.18,.12-.17,.23"/>
    <path class="cls-2" d="M19.27,18.07c.02,.11,.12,.18,.23,.16,.11-.02,.18-.12,.16-.23-.02-.11-.12-.18-.23-.17-.11,.02-.18,.12-.17,.23"/>
    <path class="cls-2" d="M18.64,18.41c.02,.11,.12,.18,.23,.16,.11-.02,.18-.12,.17-.23s-.12-.18-.23-.16c-.11,.02-.18,.12-.17,.23"/>
    <path class="cls-2" d="M22.02,20.44h-.11s.04-.69-.26-.9c-.28-.2-.5-.14-.72-.07l-.08,.02-.02-.03c-.13-.18-.34-.36-.55-.33-.25,.03-.48,.16-.77,.42-.27,.25-.58,.27-.75,.29-.04,0-.07,0-.1,.01l-.02-.11s.06,0,.11-.01c.17-.01,.44-.04,.69-.26,.31-.28,.56-.41,.83-.45,.29-.04,.53,.22,.63,.35h.01c.22-.07,.49-.15,.82,.09,.34,.25,.31,.96,.3,.99"/>
    <path class="cls-2" d="M21.99,20.48l-.1-.05s.32-.6,.32-1.13c0-.65-.49-.99-.55-1.03-.14-.09-.64-.39-1.14-.28-.37,.08-.63,.27-.84,.41-.06,.04-.11,.08-.17,.11-.27,.17-.73,.33-1.02,.35v-.11c.26-.02,.7-.17,.96-.34,.05-.03,.11-.07,.16-.11,.22-.15,.49-.35,.88-.43,.54-.12,1.07,.19,1.22,.29,.28,.18,.6,.58,.6,1.12,0,.55-.32,1.15-.33,1.18"/>
    <rect class="cls-2" x="22.16" y="19.9" width=".16" height=".21" transform="translate(-3.75 34.81) rotate(-71.65)"/>
    <rect class="cls-2" x="22.28" y="19.3" width=".16" height=".21" transform="translate(1.5 40.41) rotate(-86.16)"/>
    <rect class="cls-2" x="22.16" y="18.7" width=".21" height=".16" transform="translate(-5.48 9.92) rotate(-22.44)"/>
    <rect class="cls-2" x="21.82" y="18.2" width=".21" height=".16" transform="translate(-6.47 21.21) rotate(-45.71)"/>
    <rect class="cls-2" x="21.28" y="17.86" width=".21" height=".16" transform="translate(-3.19 31.2) rotate(-68.35)"/>
    <polygon class="cls-2" points="20.84 17.92 20.85 17.72 20.68 17.72 20.68 17.92 20.84 17.92"/>
    <rect class="cls-2" x="20.09" y="17.83" width=".16" height=".21" transform="translate(-5.3 9.01) rotate(-22.33)"/>
    <polygon class="cls-2" points="19.74 18.3 19.62 18.13 19.49 18.22 19.6 18.39 19.74 18.3"/>
    <rect class="cls-2" x="18.84" y="18.52" width=".16" height=".21" transform="translate(-4.95 7.01) rotate(-18.61)"/>
    <path class="cls-2" d="M15.83,23.31c.1-.02,.2,.01,.23,.08,.05,.1-.03,.23-.17,.3-.04,.02-.08,.03-.11,.04,0,0-.01,0-.02,0-.1,.01-.18-.02-.21-.09-.04-.07,0-.17,.08-.24,.03-.02,.06-.04,.09-.06,.04-.02,.08-.03,.11-.04m0-.04s-.09,.02-.13,.04c-.04,.02-.07,.04-.1,.06-.1,.09-.14,.21-.09,.3,.04,.08,.14,.13,.26,.11,0,0,.01,0,.02,0,.04,0,.09-.02,.13-.04,.08-.04,.14-.09,.18-.16,.04-.07,.05-.14,.02-.2-.04-.09-.15-.13-.28-.11"/>
    <path class="cls-2" d="M21.7,22.37s.08,0,.12,0c.05,0,.09,.02,.13,.04,.09,.05,.14,.12,.13,.19,0,.06-.06,.11-.14,.14-.02,0-.03,0-.05,.01-.04,0-.08,0-.12,0-.16-.02-.27-.13-.26-.23,.01-.08,.09-.14,.19-.15m0-.04c-.13,.02-.22,.09-.23,.19,0,.07,.02,.13,.08,.19,.05,.05,.13,.08,.22,.1,.04,0,.09,0,.13,0,.02,0,.04,0,.06-.01,.1-.03,.16-.1,.17-.18,.01-.09-.04-.18-.15-.24-.04-.02-.09-.04-.15-.05-.05,0-.09,0-.13,0"/>
    <path class="cls-2" d="M15.58,23.3s.02,.04,.03,.06c0,.01,.01,.03,.02,.04,.03-.02,.06-.04,.09-.06,.14-.07,.3-.05,.34,.05,.05,.1-.03,.23-.17,.3-.04,.02-.09,.03-.13,.04,.01,.06,.02,.13,.01,.2,.81-.56,2.1-.82,3.03-.97,0,0,1.79-.4,3.16-.02-.01-.08-.02-.14-.02-.2-.05,.02-.11,.02-.17,.01-.16-.02-.27-.13-.26-.23,.02-.11,.16-.18,.31-.15,.05,0,.09,.02,.13,.04,0-.02,0-.04,0-.06,0-.02,0-.04,0-.06-2.12-.23-4.27,.1-6.38,1.01Zm1.59-.11c-.19,.06-.37,.02-.4-.08-.03-.1,.1-.23,.3-.29,.19-.06,.37-.02,.4,.09,.03,.1-.1,.23-.3,.29Zm1.62-.34c-.2,.03-.37-.03-.39-.14-.02-.11,.13-.22,.33-.25,.2-.03,.37,.03,.39,.14,.02,.11-.13,.22-.33,.25Zm1.64-.18c-.2,0-.37-.08-.37-.18,0-.11,.16-.2,.36-.21,.2,0,.37,.08,.37,.18,0,.11-.16,.2-.36,.21Z"/>
    <path class="cls-2" d="M15.49,23.36c-.06,0-.12-.02-.14-.08-.01-.03-.01-.07,0-.1,.01-.03,.04-.06,.07-.07,1.09-.47,2.2-.8,3.3-.97,1.1-.18,2.22-.2,3.31-.08,.07,0,.12,.07,.11,.14,0,.06-.05,.11-.11,.11-.01,0-.02,0-.04,0-1.07-.12-2.16-.1-3.24,.07-1.08,.17-2.17,.49-3.23,.96-.01,0-.02,0-.03,0m3.23-1.18c-1.1,.17-2.2,.5-3.29,.97-.02,0-.04,.03-.05,.05,0,.02,0,.04,0,.07,.02,.04,.07,.06,.11,.05,1.07-.46,2.16-.79,3.24-.96,1.08-.17,2.18-.2,3.25-.08,.05,0,.09-.03,.1-.08,0-.05-.03-.09-.08-.1-1.09-.12-2.2-.1-3.3,.08"/>
    <path class="cls-2" d="M16.39,20.39c-.06,.28-.13,.44-.07,.63,.06,.19,.35,.67,.48,.84,.03-.24,.04-.82-.01-1-.05-.17-.32-.36-.39-.48"/>
    <path class="cls-2" d="M20.32,19.77c.13,.25,.24,.39,.24,.59,0,.2-.17,.74-.24,.94-.09-.23-.25-.78-.25-.96,0-.18,.22-.43,.25-.57"/>
    <path class="cls-2" d="M19.03,24.49c-1.64,.26-3.38,.23-3.46-.27-.08-.5,1.57-1.07,3.21-1.33,1.64-.26,3.38-.23,3.46,.27,.08,.5-1.57,1.07-3.21,1.33m-.24-1.51c-1.94,.31-3.19,.88-3.14,1.23,.05,.34,1.42,.5,3.36,.19,1.94-.31,3.19-.88,3.14-1.23-.05-.34-1.42-.5-3.36-.19"/>
    <path class="cls-2" d="M15.34,22.22c.19-.1,.36-.08,.58-.03-.14-.17-.31-.47-.38-.66-.02,.22-.15,.4-.32,.55,.06,.03,.11,.08,.12,.15Z"/>
    <path class="cls-2" d="M15.19,22.06c-.06-.17-.09-.46,.05-.74l-.6,.38c.12,.11,.23,.24,.33,.4,.03-.02,.07-.04,.11-.05,.04,0,.08,0,.11,.01Z"/>
    <path class="cls-2" d="M15.21,22.07s-.02,0-.02,0c0,0,0,.01,0,.02,0,0,.01,0,.02-.01Z"/>
    <path class="cls-2" d="M15.16,22.53c-.14,.02-.27-.07-.29-.21-.02-.14,.07-.27,.21-.29,.14-.02,.27,.07,.29,.21,.02,.14-.07,.27-.21,.29m-.07-.46c-.12,.02-.19,.13-.18,.24,.02,.12,.13,.19,.24,.18,.12-.02,.19-.13,.18-.24-.02-.11-.13-.19-.24-.18"/>
    <path class="cls-2" d="M21.86,20.97c-.17-.09-.33-.21-.4-.39,0,.2-.08,.54-.16,.75,.15-.09,.28-.15,.43-.16,0-.09,.05-.16,.13-.2Z"/>
    <g>
      <path class="cls-2" d="M22,21.41c-.07,.01-.13-.01-.18-.05-.11,.24-.32,.51-.73,.48-.33-.02-.6-.25-.59-.58,0-.11,.07-.24,.23-.25,.16-.01,.21,.24,.18,.35,.19-.14,.31-.73-.03-.76-.27-.02-.51,.35-.56,.61-.09-.28-.37-.64-.63-.58-.33,.07-.14,.64,0,.76,0-.2,.09-.39,.19-.4,.09,0,.23,.12,.24,.3,.02,.31-.32,.58-.64,.63-.32,.05-.63-.12-.79-.54-.04,.04-.09,.06-.14,.07-.05,0-.1,0-.15-.02-.03,.44-.33,.67-.6,.74-.32,.08-.76,.03-.87-.31-.05-.17,.14-.32,.23-.34,.1-.02,.25,.08,.3,.27,.04-.25,.04-.72-.3-.68-.26,.02-.37,.37-.37,.67-.12-.23-.52-.47-.74-.33-.28,.17,.03,.64,.25,.71-.06-.09-.12-.36,.03-.4,.16-.04,.27,.13,.3,.23,.1,.31-.12,.59-.45,.7-.45,.15-.76-.06-.86-.32-.02,.06-.07,.12-.14,.14,.1,.19,.19,.4,.28,.6,2.15-.92,4.33-1.27,6.49-1.03,.02-.24,.04-.47,.08-.68-.01,0-.03,0-.05,.01Z"/>
      <path class="cls-2" d="M18.26,21.1c-.19,0-.45-.04-.61-.19,.09,.33,.12,.51,.13,.84,.08-.16,.32-.32,.51-.4-.02-.03-.04-.07-.04-.11,0-.05,0-.09,.01-.13Z"/>
      <path class="cls-2" d="M18.47,20.92c.06-.01,.12,0,.18,.03,.04-.21,.13-.42,.33-.57l-1.11,.18c.23,.09,.36,.26,.45,.44,.04-.04,.09-.07,.15-.08Z"/>
      <path class="cls-2" d="M18.77,21.26c.21,.02,.49,.1,.62,.23-.09-.31-.12-.5-.13-.84-.11,.2-.35,.31-.54,.38,.03,.03,.04,.07,.05,.12,0,.04,0,.08,0,.11Z"/>
    </g>
    <path class="cls-2" d="M22.13,21.01c.05-.2,.12-.38,.22-.54l-.69-.17c.2,.2,.27,.46,.28,.64,.07,0,.14,.02,.19,.06Z"/>
    <path class="cls-2" d="M22.01,21.43c-.14,.02-.27-.07-.29-.21-.02-.14,.07-.27,.21-.29,.14-.02,.27,.07,.29,.21,.02,.14-.07,.27-.21,.29m-.07-.46c-.12,.02-.19,.13-.18,.24,.02,.11,.13,.19,.24,.18,.12-.02,.19-.13,.18-.24-.02-.12-.13-.19-.24-.18"/>
    <path class="cls-2" d="M17.4,23.65c-.08-.05-.03-.16,.13-.15,.16,.01,.14,.1,.33,.08-.03,.06-.38,.13-.46,.07"/>
    <path class="cls-2" d="M18.78,23.36c-.08-.06-.03-.16,.13-.15,.16,.01,.14,.1,.33,.08-.03,.07-.38,.13-.46,.07"/>
    <path class="cls-2" d="M20.15,23.24c-.08-.06-.03-.16,.13-.15,.16,.01,.14,.1,.33,.08-.03,.06-.38,.13-.46,.07"/>
    <path class="cls-2" d="M16.14,24.09c-.08-.06-.03-.16,.13-.15,.16,.01,.14,.1,.33,.08-.03,.06-.38,.13-.46,.07"/>
    <path class="cls-2" d="M21.36,23.26c-.08-.06-.03-.16,.13-.15,.16,0,.14,.09,.33,.08-.03,.06-.38,.13-.46,.07"/>
  </g>
  <g>
    <path class="cls-3" d="M35.78,28.95c.62,.09,1.36,.26,1.98,.32,.89,.08,1.65,.09,2.54,.12,1.06-.14,1.63,1.29,.95,2.19-.52,.69-1.21,1.52-2.19,1.1-.18-.05-.31-.28-.64-.09-.54,.48-.93,.34-1.31-.06-.15-.09-.37-.17-.52-.12-.79,.31-1.15-.05-1.53-.4-.61-.56-.84-1.2-.82-1.91,.02-.79,.43-1.09,1.54-1.15m-.9,1.98c.45-.76,.96-.68,1.36-.38,.39,.29,.77,.36,1.21,.4,.67,.06,1.31,.07,1.96-.23,.26-.12,.85-.28,.81,.45,0,.06,.11,.23,.17,.26,.16,.08,.28-.13,.34-.21,.24-.38,0-.89-.43-1.07-.46-.19-.84-.18-1.19-.07-.98,.33-1.87,.22-2.78-.24-.32-.16-.74-.28-1.11-.14-.2,.08-.39,.15-.49,.37-.14,.32-.04,.61,.14,.85"/>
    <path class="cls-3" d="M37.05,34.38c-.48,.08-.61,.22-.84,.54-.07,.1-.35,.03-.55-.03-.22-.06-.53-.13-.56-.38,.02-.75,.99-1.52,1.69-1.29,.36,.12,.38,.4,.39,.62,0,.2-.01,.56-.11,.52"/>
    <path class="cls-3" d="M33.65,30.76c-1.24,0-1.55-.26-1.69-.95-.05-.25-.06-.55-.03-.92,1.26,.06,1.63,.22,1.54,.93-.05,.36-.04,.47,.18,.95"/>
    <path class="cls-3" d="M38.04,36.05c-.09,.52-.51,.79-.92,.73-.3-.04-.75-.47-.76-.75-.02-.47,.32-.87,.92-.83,.52,.03,.87,.21,.76,.85"/>
    <path class="cls-3" d="M41.84,31.7c1.1,0,1.37-.24,1.49-.89,.04-.23,.05-.52,.03-.87-1.12,.06-1.25,.21-1.28,.88-.03,.61-.08,.63-.24,.88"/>
    <path class="cls-3" d="M31.84,37.72c-1.12-.32-1.46-.16-1.76,.43-.11,.21-.19,.48-.26,.83,1.16,.27,1.33,.15,1.54-.49,.19-.58,.31-.55,.48-.77"/>
    <path class="cls-3" d="M42.47,38.39c.99-.28,1.29-.14,1.55,.38,.09,.18,.17,.42,.23,.73-1.02,.23-1.17,.13-1.36-.43q-.17-.51-.43-.68"/>
    <path class="cls-3" d="M37.33,41.36c.76,.73,.8,1.07,.48,1.58-.11,.18-.29,.37-.52,.59-.74-.78-.73-.97-.33-1.43,.37-.42,.27-.43,.38-.74"/>
    <path class="cls-3" d="M35.77,35.87c-.08,.46,0,.63,.22,.94,.07,.1-.08,.33-.2,.5-.13,.18-.28,.44-.52,.4-.66-.25-1.06-1.37-.63-1.94,.23-.29,.49-.22,.68-.16,.18,.06,.5,.18,.43,.27"/>
    <path class="cls-3" d="M38.61,35.25c-.13-.45-.27-.56-.6-.75-.1-.06-.07-.33-.03-.53,.04-.22,.07-.52,.3-.58,.71-.06,1.55,.79,1.4,1.48-.08,.36-.34,.41-.55,.44-.19,.03-.53,.05-.51-.05"/>
    <path class="cls-3" d="M36.77,37.38c.44,.18,.61,.13,.97-.01,.11-.05,.31,.15,.44,.3,.15,.16,.37,.37,.27,.59-.39,.59-1.58,.73-2.03,.19-.23-.28-.11-.52,0-.7,.1-.17,.29-.45,.36-.37"/>
    <path class="cls-3" d="M38.48,36.88c.32-.29,.35-.45,.36-.81,0-.11,.24-.19,.42-.24,.19-.05,.45-.15,.6,.02,.34,.57,0,1.61-.62,1.76-.32,.08-.48-.12-.58-.29-.1-.15-.26-.42-.17-.45"/>
    <path class="cls-3" d="M30.44,35.34c.25-.44,.59-.95,.81-1.4,.31-.64,.53-1.22,.79-1.89,.17-.85,1.57-.84,2.17-.06,.46,.6,1,1.38,.37,1.99-.09,.12-.33,.15-.25,.45,.27,.55,.05,.81-.4,.98-.12,.09-.25,.23-.25,.35,.06,.69-.35,.86-.76,1.04-.65,.29-1.27,.27-1.89,.04-.68-.25-.83-.65-.59-1.51m1.48,1.28c-.54-.57-.33-.93,.04-1.14,.35-.21,.53-.48,.68-.8,.23-.49,.42-.97,.33-1.55-.04-.23-.01-.73,.61-.48,.05,.02,.23-.02,.28-.05,.11-.1-.04-.25-.1-.32-.26-.3-.78-.27-1.05,0-.29,.29-.39,.58-.38,.88,.02,.84-.31,1.48-.96,2.03-.23,.19-.45,.47-.42,.8,.01,.17,.03,.34,.19,.48,.24,.2,.52,.22,.78,.15"/>
    <path class="cls-3" d="M43.05,37.82c-.64,.06-1.23-.07-1.79-.51-.34-.28-.7-.54-.47-1.18,.03-.12-.06-.28-.15-.4-.39-.27-.54-.57-.15-1.03,.15-.27-.07-.36-.13-.49-.45-.74,.26-1.34,.84-1.8,.76-.6,2.1-.26,2.05,.59,.09,.7,.15,1.3,.29,1.99,.1,.48,.3,1.05,.43,1.53,.02,.88-.22,1.22-.93,1.29m-.01-.39c.19-.09,.24-.25,.3-.41,.11-.3-.03-.63-.2-.86-.48-.68-.64-1.37-.41-2.17,.08-.29,.06-.58-.14-.93-.19-.33-.67-.48-.99-.26-.07,.05-.25,.16-.17,.28,.03,.05,.19,.13,.25,.12,.65-.09,.55,.39,.46,.6-.23,.53-.17,1.03-.07,1.56,.06,.34,.16,.64,.45,.93,.3,.29,.4,.69-.25,1.1,.23,.13,.5,.18,.78,.05"/>
    <path class="cls-3" d="M38.29,41.85c-.33-.47-.48-.98-.38-1.59,.07-.38,.12-.77,.71-.86,.11-.02,.2-.17,.24-.28,.04-.41,.21-.66,.74-.55,.28,0,.25-.21,.33-.31,.38-.66,1.16-.38,1.77-.12,.8,.33,1.11,1.51,.43,1.83-.51,.37-.95,.67-1.43,1.07-.34,.28-.69,.68-1.01,.98-.68,.39-1.05,.35-1.41-.17m.3-.18c.15,.11,.3,.08,.45,.05,.28-.05,.47-.29,.59-.52,.32-.66,.79-1.08,1.51-1.24,.26-.06,.48-.2,.66-.51,.17-.29,.08-.72-.23-.88-.07-.04-.23-.12-.29-.01-.02,.04-.02,.2,.02,.24,.35,.46-.07,.59-.27,.61-.51,.05-.88,.31-1.25,.61-.24,.2-.43,.4-.53,.74-.1,.35-.36,.6-.96,.28,0,.23,.07,.46,.3,.62"/>
    <path class="cls-3" d="M31.89,38.84c.35-.5,.81-.84,1.47-.96,.41-.07,.81-.16,1.13,.4,.06,.1,.24,.14,.37,.14,.43-.11,.74-.03,.82,.54,.1,.28,.3,.17,.43,.22,.81,.14,.8,1.03,.77,1.74-.04,.93-1.11,1.67-1.69,1.1-.55-.38-1.02-.71-1.6-1.05-.41-.24-.94-.45-1.36-.66-.64-.54-.74-.93-.35-1.48m.29,.24c-.05,.19,.03,.33,.11,.47,.15,.27,.47,.37,.74,.4,.78,.08,1.38,.4,1.8,1.07,.15,.24,.38,.41,.75,.48,.35,.07,.76-.18,.8-.55,.01-.08,.04-.28-.1-.3-.05,0-.21,.06-.24,.1-.34,.52-.62,.15-.72-.05-.24-.5-.64-.77-1.07-1.03-.28-.17-.56-.29-.94-.26-.39,.03-.74-.14-.63-.87-.23,.08-.44,.24-.52,.53"/>
  </g>
  <g>
    <path class="cls-3" d="M88.91,28.62c-.03-.68-.75-1.21-1.51-1.29-.17-.02-.38-.01-.56-.07-.16-.05-.35-.18-.31-.48,.45-.04,.96-.04,1.29,0,.45,.05,.63,.19,1.09,.39-.14-.67-.89-1.22-1.65-1.17-.16,.01-.33,.03-.5,.03-.2,0-.56-.03-.57-.45,.5-.1,.97-.19,1.35-.19,.46,0,.69,.07,1.17,.22-.22-.65-.94-1.08-1.69-.94-.17,.03-.35,.05-.55,.09-.18,.04-.48,.1-.58-.25,0,0,0,0,0,0,.51-.17,.89-.34,1.29-.39,.45-.06,.76,0,1.25,.09-.3-.61-1.05-.97-1.78-.74-.17,.05-.35,.1-.55,.16-.17,.06-.46,.17-.59-.21,.48-.25,.74-.39,1.1-.51,.43-.13,.78-.18,1.26-.05-.37-.57-1.15-.81-1.85-.5-.17,.07-.35,.17-.55,.25-.17,.07-.38,.08-.52-.16,0,0,0,0,0-.01,.31-.22,.6-.42,.87-.53,.42-.17,.78-.24,1.28-.28-.45-.52-1.27-.49-1.97-.11-.07,.04-.16,.08-.28,.14-.18,.09-.46,.16-.63-.1,.64-.56,1.45-.72,1.83-.7,0-.04-.58-.34-1.06-.12,0-.12-.01-.28-.21-.45,0,.39-.55,.77-.89,1.03-.63,.47-1.28,.89-2.1,1.05-.38,.07-.57,0-.67-.12-.12-.17-.02-.4,.3-.4,.69-.02,1.1-.51,1.59-.87,.19-.14,.32-.3,.63-.32-1.65-.27-2.61-.79-3.67,.51-.21-.57,.05-.88,.36-1.1,.33-.23,.74-.36,1.08-.59,.55-.36,.72-1.13,.41-1.58-.3,.26-.16,.48-.51,1.03-.29,.4-.54,.45-.7,.38,.05-.17,.28-.56,.36-.79,.12-.34,.13-.32,.17-.72,0,0,.06-.71-.2-.76-.19,.24-.23,.29-.39,.7-.16,.39-.57,1.5-1.01,1.31,.12-.38,.15-.41,.26-.78,.08-.27,.12-.53,.15-.88,.01-.17,.03-.53-.2-.67-.11,.11-.41,.64-.47,.78-.22,.59-.29,.69-.53,1.39-1.68-1.08-3.23-2.02-4.71-3.04-1.53-1.06-3.02-2.18-4.73-2.94,.67,.75,1.44,1.28,2.12,1.92,.35,.32,.58,.47,.79,.49,.44,.03,.58,.19,.69,.29,.26,.18-.14,.18-.43,.19,.26,.21,.4,.42,.62,.43,.87,0,.84,.12,.93,.19,.47,.35-.3,.22-.51,.25,.17,.24,.48,.45,.66,.47,.32,.04,.7-.07,.89,.13,.41,.29-.1,.21-.54,.25,.32,.3,.52,.57,.94,.56,.49,0,.62-.11,.96,.16,.57,.39-.4,.31-.88,.33,.37,.36,.54,.51,.8,.51,.4,0,.96-.12,1.2,.1,.31,.28-.23,.32-.97,.31,.17,.46,.14,.81-.5,1.31-.48,.37-.78,.88-.87,1.41-.19,1.2-.87,2.16-1.64,2.91-.73,.71-1.2,1.23-1.16,2.36,.01,.31,.14,.82,.35,.91,.29,.12,.73-.03,1.08-.14,.42-.14,.82-.36,1.23-.54,.08-.06,.21-.03,.16,.18-.09,.5-.19,1-.26,1.51,0,.07-.03,.27-.03,.35,0,.03,.08,.07,.13,.09,.55,.25,1.47-.31,1.56-.97,.1-.67,1.1-1.75,1.67-1.78,1.31-.09,2.39-.62,3.12-1.74,.08-.12,.1-.27,.15-.41,.03-.16,.16-.16,.18,.04-.02,.22-.02,.44-.06,.65-.16,.88-.84,1.29-1.51,1.74-.24,.16-.55,.4-.58,.63-.1,.77-.33,1.43-.84,2.04-.34,.41-.93,1.05-1.35,1.29,.21-.02-.07,.79-.07,.79,.31-.2,.6-.17,.76,.16-.05-.62,1.42-1.07,1.38-1-.11,.5,.08,1.43-.17,1.71,.31,0,.45,0,.55,.45,.07-.34,.27-.6,.53-.4,.76,.46,1.38,1.05,1.9,1.46,.15,.12,.08,.44-.31,.51,.65,.23,2.07-.11,2.07-.11,0,0,.15,.82-.09,1.04,.43,.33,.99,.6,1.25,.9,.31,.34,.56,.66,.68,1.18,.34-.59-.07-1.44-.67-1.91-.27-.21-.54-.43-.39-.94,.37,.27,.7,.52,.93,.77,.31,.34,.59,.68,.7,1.11,.34-.59-.08-1.37-.69-1.84-.28-.21-.67-.41-.49-.94,0-.02,.02-.03,.02-.05,.37,.27,.74,.51,.97,.76,.31,.34,.59,.55,.72,1.07,.34-.59-.11-1.33-.71-1.8-.28-.21-.64-.46-.46-.99,.37,.24,.72,.45,.95,.68,.32,.33,.57,.58,.73,1.03,.31-.61-.12-1.32-.75-1.76-.14-.1-.3-.24-.43-.37-.04-.04-.31-.19-.16-.64,.38,.23,.75,.44,.99,.67,.33,.32,.63,.62,.78,1.06,.29-.62-.19-1.36-.82-1.79-.13-.09-.3-.17-.43-.28-.15-.14-.43-.23-.35-.73,.42,.19,.83,.35,1.1,.56,.37,.27,.72,.52,.92,.91,.21-.65-.36-1.28-1.05-1.63-.15-.08-.34-.14-.49-.25-.15-.11-.31-.22-.31-.67,.4,.11,.85,.29,1.13,.43,.41,.21,.77,.42,1.05,.79,.11-.67-.56-1.25-1.29-1.48-.15-.05-.33-.15-.48-.22-.15-.07-.34-.34-.33-.58,.41,.07,.93,.18,1.23,.3,.42,.17,.68,.32,1.07,.65,.04-.68-.63-1.15-1.38-1.3-.14-.03-.29-.04-.44-.08-.14-.03-.44-.26-.4-.6t0,0c.44,.03,.86,.04,1.17,.13,.44,.13,.71,.26,1.13,.54m-14.85-1.5c-.07,.13-.21,.12-.32,.18-.16,.06-.09-.55-.23-.58-.14,0-.33,.16-.5,.25-.09,.09-.2,.01-.16-.08,.11-.24,.17-.64,.33-.68,.24-.06,.6,.06,.8,.23,.13,.11,.22,.45,.09,.68m2-3.19c-.13-.2-.81,.64-.72,.32,.27-.65,.44-1.19,.71-1.67,.12-.22,.29-.31,.57-.44,.22,0-.07,.58,.09,.69,.43,.34,.93,.73,1.44,1.14-.54,.36-1.77,.32-2.09-.04m4.98-2.41c-.12,.15-.3,.21-.48,.1-.22-.15-.07-.32,.06-.47,.27-.31,.72-.48,1.48-.26,.9,.26-.47-.11-1.05,.63"/>
    <path class="cls-2" d="M82.97,19.87c.27,.02,.55-.16,.64-.34,.09-.2,.07-.61-.02-.69-.02-.02-.14-.05-.25,.12-.2,.29-.11,.52-.14,.64-.03,.13-.22,.27-.22,.27"/>
    <path class="cls-2" d="M84.4,19.39c.07,.05,.07,.29-.05,.41-.12,.12-.27,.21-.54,.13,.28-.13,.18-.3,.35-.44,0,0,.18-.15,.24-.1"/>
    <path class="cls-2" d="M82.02,19.75c.3,0,.66-.21,.76-.45,.11-.27,.06-.83-.02-.92-.02-.02-.16-.06-.3,.16-.23,.38-.14,.68-.17,.85-.04,.17-.26,.35-.26,.35"/>
  </g>
</svg>